<svg xmlns="http://www.w3.org/2000/svg" width="980" height="380" viewBox="0 0 980 380"><rect width="980" height="380" fill="#FFFFFF"/><line x1="70" y1="325" x2="950" y2="325" stroke="#E6ECF3" stroke-width="1"/><text x="58" y="329" font-size="12" font-family="Aptos" text-anchor="end" fill="#6D7C90">0.0 sn</text><line x1="70" y1="251.25" x2="950" y2="251.25" stroke="#E6ECF3" stroke-width="1"/><text x="58" y="255.25" font-size="12" font-family="Aptos" text-anchor="end" fill="#6D7C90">0.5 sn</text><line x1="70" y1="177.5" x2="950" y2="177.5" stroke="#E6ECF3" stroke-width="1"/><text x="58" y="181.5" font-size="12" font-family="Aptos" text-anchor="end" fill="#6D7C90">1.0 sn</text><line x1="70" y1="103.75" x2="950" y2="103.75" stroke="#E6ECF3" stroke-width="1"/><text x="58" y="107.75" font-size="12" font-family="Aptos" text-anchor="end" fill="#6D7C90">1.5 sn</text><line x1="70" y1="30" x2="950" y2="30" stroke="#E6ECF3" stroke-width="1"/><text x="58" y="34" font-size="12" font-family="Aptos" text-anchor="end" fill="#6D7C90">2.0 sn</text><line x1="70" y1="30" x2="70" y2="325" stroke="#F1F4F8" stroke-width="1"/><text x="70" y="360" font-size="12" font-family="Aptos" text-anchor="middle" fill="#6D7C90">75</text><line x1="137.69230769230768" y1="30" x2="137.69230769230768" y2="325" stroke="#F1F4F8" stroke-width="1"/><text x="137.69230769230768" y="360" font-size="12" font-family="Aptos" text-anchor="middle" fill="#6D7C90">100</text><line x1="273.0769230769231" y1="30" x2="273.0769230769231" y2="325" stroke="#F1F4F8" stroke-width="1"/><text x="273.0769230769231" y="360" font-size="12" font-family="Aptos" text-anchor="middle" fill="#6D7C90">150</text><line x1="408.46153846153845" y1="30" x2="408.46153846153845" y2="325" stroke="#F1F4F8" stroke-width="1"/><text x="408.46153846153845" y="360" font-size="12" font-family="Aptos" text-anchor="middle" fill="#6D7C90">200</text><line x1="679.2307692307692" y1="30" x2="679.2307692307692" y2="325" stroke="#F1F4F8" stroke-width="1"/><text x="679.2307692307692" y="360" font-size="12" font-family="Aptos" text-anchor="middle" fill="#6D7C90">300</text><line x1="950" y1="30" x2="950" y2="325" stroke="#F1F4F8" stroke-width="1"/><text x="950" y="360" font-size="12" font-family="Aptos" text-anchor="middle" fill="#6D7C90">400</text><line x1="70" y1="103.75" x2="950" y2="103.75" stroke="#D95D5D" stroke-width="2" stroke-dasharray="8 6"/><text x="950" y="95.75" font-size="12" font-family="Aptos" text-anchor="end" fill="#D95D5D">Risk esigi: 1.5 sn</text><path d="M 70 263.063275 L 137.69230769230768 263.4761275 L 273.0769230769231 234.472465 L 408.46153846153845 210.702545 L 679.2307692307692 154.24338 L 950 140.88342" fill="none" stroke="#2F6BFF" stroke-width="3"/><circle cx="70" cy="263.063275" r="6" fill="#2F6BFF" /><text x="70" y="253.06327499999998" font-size="12" font-family="Aptos" text-anchor="middle" fill="#102033">0.42</text><circle cx="137.69230769230768" cy="263.4761275" r="6" fill="#2F6BFF" /><text x="137.69230769230768" y="253.47612750000002" font-size="12" font-family="Aptos" text-anchor="middle" fill="#102033">0.42</text><circle cx="273.0769230769231" cy="234.472465" r="6" fill="#2F6BFF" /><text x="273.0769230769231" y="224.472465" font-size="12" font-family="Aptos" text-anchor="middle" fill="#102033">0.61</text><circle cx="408.46153846153845" cy="210.702545" r="6" fill="#2F6BFF" /><text x="408.46153846153845" y="200.702545" font-size="12" font-family="Aptos" text-anchor="middle" fill="#102033">0.77</text><circle cx="679.2307692307692" cy="154.24338" r="6" fill="#2AA66D" /><text x="679.2307692307692" y="144.24338" font-size="12" font-family="Aptos" text-anchor="middle" fill="#102033">1.16</text><circle cx="950" cy="140.88342" r="6" fill="#2AA66D" /><text x="950" y="130.88342" font-size="12" font-family="Aptos" text-anchor="middle" fill="#102033">1.25</text></svg>