<svg xmlns="http://www.w3.org/2000/svg" width="1040" height="430" viewBox="0 0 1040 430"><rect width="1040" height="430" fill="#FFFFFF"/><line x1="140" y1="30" x2="140" y2="360" stroke="#E6ECF3" stroke-width="1"/><text x="140" y="406" font-size="12" font-family="Aptos" text-anchor="middle" fill="#6D7C90">0%</text><line x1="314" y1="30" x2="314" y2="360" stroke="#E6ECF3" stroke-width="1"/><text x="314" y="406" font-size="12" font-family="Aptos" text-anchor="middle" fill="#6D7C90">20%</text><line x1="488" y1="30" x2="488" y2="360" stroke="#E6ECF3" stroke-width="1"/><text x="488" y="406" font-size="12" font-family="Aptos" text-anchor="middle" fill="#6D7C90">40%</text><line x1="662" y1="30" x2="662" y2="360" stroke="#E6ECF3" stroke-width="1"/><text x="662" y="406" font-size="12" font-family="Aptos" text-anchor="middle" fill="#6D7C90">60%</text><line x1="836" y1="30" x2="836" y2="360" stroke="#E6ECF3" stroke-width="1"/><text x="836" y="406" font-size="12" font-family="Aptos" text-anchor="middle" fill="#6D7C90">80%</text><line x1="1010" y1="30" x2="1010" y2="360" stroke="#E6ECF3" stroke-width="1"/><text x="1010" y="406" font-size="12" font-family="Aptos" text-anchor="middle" fill="#6D7C90">100%</text><text x="122" y="56" font-size="14" font-family="Aptos" font-weight="700" text-anchor="end" fill="#102033">Dogru alarm orani</text><rect x="140" y="48" rx="6" ry="6" width="870" height="18" fill="#2AA66D"/><rect x="140" y="76" rx="6" ry="6" width="699.48" height="18" fill="#F2A541"/><text x="1018" y="61" font-size="12" font-family="Aptos" fill="#102033">100.0%</text><text x="847.48" y="89" font-size="12" font-family="Aptos" fill="#102033">80.4%</text><text x="122" y="138.5" font-size="14" font-family="Aptos" font-weight="700" text-anchor="end" fill="#102033">Yakalama orani</text><rect x="140" y="130.5" rx="6" ry="6" width="857.82" height="18" fill="#2AA66D"/><rect x="140" y="158.5" rx="6" ry="6" width="565.5" height="18" fill="#F2A541"/><text x="1005.82" y="143.5" font-size="12" font-family="Aptos" fill="#102033">98.6%</text><text x="713.5" y="171.5" font-size="12" font-family="Aptos" fill="#102033">65.0%</text><text x="122" y="221" font-size="14" font-family="Aptos" font-weight="700" text-anchor="end" fill="#102033">Denge skoru</text><rect x="140" y="213" rx="6" ry="6" width="863.91" height="18" fill="#2AA66D"/><rect x="140" y="241" rx="6" ry="6" width="615.09" height="18" fill="#F2A541"/><text x="1011.91" y="226" font-size="12" font-family="Aptos" fill="#102033">99.3%</text><text x="763.09" y="254" font-size="12" font-family="Aptos" fill="#102033">70.7%</text><text x="122" y="303.5" font-size="14" font-family="Aptos" font-weight="700" text-anchor="end" fill="#102033">Yanlis alarm azligi</text><rect x="140" y="295.5" rx="6" ry="6" width="870" height="18" fill="#2AA66D"/><rect x="140" y="323.5" rx="6" ry="6" width="862.17" height="18" fill="#F2A541"/><text x="1018" y="308.5" font-size="12" font-family="Aptos" fill="#102033">100.0%</text><text x="1010.17" y="336.5" font-size="12" font-family="Aptos" fill="#102033">99.1%</text><rect x="140" y="378" width="12" height="12" rx="3" fill="#2AA66D"/><text x="160" y="388" font-size="12" font-family="Aptos" fill="#102033">Bizim final Anomaly Detector</text><rect x="360" y="378" width="12" height="12" rx="3" fill="#F2A541"/><text x="380" y="388" font-size="12" font-family="Aptos" fill="#102033">Elastic Machine Learning</text></svg>