<svg xmlns="http://www.w3.org/2000/svg" width="980" height="560" viewBox="0 0 980 560"><rect width="980" height="560" fill="#ffffff"/><line x1="72" y1="488" x2="956" y2="488" stroke="#E2E8F0" stroke-width="1"/><text x="62" y="492" text-anchor="end" font-family="Arial" font-size="12" fill="#64748B">0.0s</text><line x1="72" y1="373.5" x2="956" y2="373.5" stroke="#E2E8F0" stroke-width="1"/><text x="62" y="377.5" text-anchor="end" font-family="Arial" font-size="12" fill="#64748B">0.5s</text><line x1="72" y1="259" x2="956" y2="259" stroke="#E2E8F0" stroke-width="1"/><text x="62" y="263" text-anchor="end" font-family="Arial" font-size="12" fill="#64748B">1.0s</text><line x1="72" y1="144.5" x2="956" y2="144.5" stroke="#E2E8F0" stroke-width="1"/><text x="62" y="148.5" text-anchor="end" font-family="Arial" font-size="12" fill="#64748B">1.5s</text><line x1="72" y1="30" x2="956" y2="30" stroke="#E2E8F0" stroke-width="1"/><text x="62" y="34" text-anchor="end" font-family="Arial" font-size="12" fill="#64748B">2.0s</text><line x1="72" y1="30" x2="72" y2="488" stroke="#F1F5F9" stroke-width="1"/><text x="72" y="536" text-anchor="middle" font-family="Arial" font-size="12" fill="#475569">75</text><line x1="248.8" y1="30" x2="248.8" y2="488" stroke="#F1F5F9" stroke-width="1"/><text x="248.8" y="536" text-anchor="middle" font-family="Arial" font-size="12" fill="#475569">100</text><line x1="425.6" y1="30" x2="425.6" y2="488" stroke="#F1F5F9" stroke-width="1"/><text x="425.6" y="536" text-anchor="middle" font-family="Arial" font-size="12" fill="#475569">150</text><line x1="602.4000000000001" y1="30" x2="602.4000000000001" y2="488" stroke="#F1F5F9" stroke-width="1"/><text x="602.4000000000001" y="536" text-anchor="middle" font-family="Arial" font-size="12" fill="#475569">200</text><line x1="779.2" y1="30" x2="779.2" y2="488" stroke="#F1F5F9" stroke-width="1"/><text x="779.2" y="536" text-anchor="middle" font-family="Arial" font-size="12" fill="#475569">300</text><line x1="956" y1="30" x2="956" y2="488" stroke="#F1F5F9" stroke-width="1"/><text x="956" y="536" text-anchor="middle" font-family="Arial" font-size="12" fill="#475569">400</text><polyline fill="none" stroke="#3E7BFA" stroke-width="3" points="72,391.84060999999997 248.8,392.481581 425.6,347.45216600000003 602.4000000000001,310.548358 779.2,222.89311199999997 956,202.151208"/><circle cx="72" cy="391.84060999999997" r="4.5" fill="#3E7BFA"/><text x="72" y="382.84060999999997" text-anchor="middle" font-family="Arial" font-size="11" font-weight="700" fill="#243446">0.42s</text><circle cx="248.8" cy="392.481581" r="4.5" fill="#3E7BFA"/><text x="248.8" y="383.481581" text-anchor="middle" font-family="Arial" font-size="11" font-weight="700" fill="#243446">0.42s</text><circle cx="425.6" cy="347.45216600000003" r="4.5" fill="#3E7BFA"/><text x="425.6" y="338.45216600000003" text-anchor="middle" font-family="Arial" font-size="11" font-weight="700" fill="#243446">0.61s</text><circle cx="602.4000000000001" cy="310.548358" r="4.5" fill="#3E7BFA"/><text x="602.4000000000001" y="301.548358" text-anchor="middle" font-family="Arial" font-size="11" font-weight="700" fill="#243446">0.77s</text><circle cx="779.2" cy="222.89311199999997" r="4.5" fill="#3E7BFA"/><text x="779.2" y="213.89311199999997" text-anchor="middle" font-family="Arial" font-size="11" font-weight="700" fill="#243446">1.16s</text><circle cx="956" cy="202.151208" r="4.5" fill="#3E7BFA"/><text x="956" y="193.151208" text-anchor="middle" font-family="Arial" font-size="11" font-weight="700" fill="#243446">1.25s</text><polyline fill="none" stroke="#D95D5D" stroke-width="3" points="72,144.5 248.8,144.5 425.6,144.5 602.4000000000001,144.5 779.2,144.5 956,144.5"/><circle cx="72" cy="144.5" r="4.5" fill="#D95D5D"/><text x="72" y="135.5" text-anchor="middle" font-family="Arial" font-size="11" font-weight="700" fill="#243446">1.50s</text><circle cx="248.8" cy="144.5" r="4.5" fill="#D95D5D"/><text x="248.8" y="135.5" text-anchor="middle" font-family="Arial" font-size="11" font-weight="700" fill="#243446">1.50s</text><circle cx="425.6" cy="144.5" r="4.5" fill="#D95D5D"/><text x="425.6" y="135.5" text-anchor="middle" font-family="Arial" font-size="11" font-weight="700" fill="#243446">1.50s</text><circle cx="602.4000000000001" cy="144.5" r="4.5" fill="#D95D5D"/><text x="602.4000000000001" y="135.5" text-anchor="middle" font-family="Arial" font-size="11" font-weight="700" fill="#243446">1.50s</text><circle cx="779.2" cy="144.5" r="4.5" fill="#D95D5D"/><text x="779.2" y="135.5" text-anchor="middle" font-family="Arial" font-size="11" font-weight="700" fill="#243446">1.50s</text><circle cx="956" cy="144.5" r="4.5" fill="#D95D5D"/><text x="956" y="135.5" text-anchor="middle" font-family="Arial" font-size="11" font-weight="700" fill="#243446">1.50s</text><line x1="72" y1="517" x2="88" y2="517" stroke="#3E7BFA" stroke-width="3"/><circle cx="80" cy="517" r="4" fill="#3E7BFA"/><text x="96" y="522" font-family="Arial" font-size="12" fill="#243446">Evaluation duration</text><line x1="242" y1="517" x2="258" y2="517" stroke="#D95D5D" stroke-width="3"/><circle cx="250" cy="517" r="4" fill="#D95D5D"/><text x="266" y="522" font-family="Arial" font-size="12" fill="#243446">Safety threshold</text></svg>