<svg xmlns="http://www.w3.org/2000/svg" width="980" height="560" viewBox="0 0 980 560"><rect width="980" height="560" fill="#ffffff"/><line x1="72" y1="488" x2="956" y2="488" stroke="#E2E8F0" stroke-width="1"/><text x="62" y="492" text-anchor="end" font-family="Arial" font-size="12" fill="#64748B">0</text><line x1="72" y1="396.4" x2="956" y2="396.4" stroke="#E2E8F0" stroke-width="1"/><text x="62" y="400.4" text-anchor="end" font-family="Arial" font-size="12" fill="#64748B">20</text><line x1="72" y1="304.79999999999995" x2="956" y2="304.79999999999995" stroke="#E2E8F0" stroke-width="1"/><text x="62" y="308.79999999999995" text-anchor="end" font-family="Arial" font-size="12" fill="#64748B">40</text><line x1="72" y1="213.2" x2="956" y2="213.2" stroke="#E2E8F0" stroke-width="1"/><text x="62" y="217.2" text-anchor="end" font-family="Arial" font-size="12" fill="#64748B">60</text><line x1="72" y1="121.59999999999997" x2="956" y2="121.59999999999997" stroke="#E2E8F0" stroke-width="1"/><text x="62" y="125.59999999999997" text-anchor="end" font-family="Arial" font-size="12" fill="#64748B">80</text><line x1="72" y1="30" x2="956" y2="30" stroke="#E2E8F0" stroke-width="1"/><text x="62" y="34" text-anchor="end" font-family="Arial" font-size="12" fill="#64748B">100</text><line x1="72" y1="30" x2="72" y2="488" stroke="#F1F5F9" stroke-width="1"/><text x="72" y="536" text-anchor="middle" font-family="Arial" font-size="12" fill="#475569">1</text><line x1="140" y1="30" x2="140" y2="488" stroke="#F1F5F9" stroke-width="1"/><text x="140" y="536" text-anchor="middle" font-family="Arial" font-size="12" fill="#475569">2</text><line x1="208" y1="30" x2="208" y2="488" stroke="#F1F5F9" stroke-width="1"/><text x="208" y="536" text-anchor="middle" font-family="Arial" font-size="12" fill="#475569">3</text><line x1="276" y1="30" x2="276" y2="488" stroke="#F1F5F9" stroke-width="1"/><text x="276" y="536" text-anchor="middle" font-family="Arial" font-size="12" fill="#475569">5</text><line x1="344" y1="30" x2="344" y2="488" stroke="#F1F5F9" stroke-width="1"/><text x="344" y="536" text-anchor="middle" font-family="Arial" font-size="12" fill="#475569">7.5</text><line x1="412" y1="30" x2="412" y2="488" stroke="#F1F5F9" stroke-width="1"/><text x="412" y="536" text-anchor="middle" font-family="Arial" font-size="12" fill="#475569">10</text><line x1="480" y1="30" x2="480" y2="488" stroke="#F1F5F9" stroke-width="1"/><text x="480" y="536" text-anchor="middle" font-family="Arial" font-size="12" fill="#475569">15</text><line x1="548" y1="30" x2="548" y2="488" stroke="#F1F5F9" stroke-width="1"/><text x="548" y="536" text-anchor="middle" font-family="Arial" font-size="12" fill="#475569">20</text><line x1="616" y1="30" x2="616" y2="488" stroke="#F1F5F9" stroke-width="1"/><text x="616" y="536" text-anchor="middle" font-family="Arial" font-size="12" fill="#475569">50</text><line x1="684" y1="30" x2="684" y2="488" stroke="#F1F5F9" stroke-width="1"/><text x="684" y="536" text-anchor="middle" font-family="Arial" font-size="12" fill="#475569">25</text><line x1="752" y1="30" x2="752" y2="488" stroke="#F1F5F9" stroke-width="1"/><text x="752" y="536" text-anchor="middle" font-family="Arial" font-size="12" fill="#475569">30</text><line x1="820" y1="30" x2="820" y2="488" stroke="#F1F5F9" stroke-width="1"/><text x="820" y="536" text-anchor="middle" font-family="Arial" font-size="12" fill="#475569">40</text><line x1="888" y1="30" x2="888" y2="488" stroke="#F1F5F9" stroke-width="1"/><text x="888" y="536" text-anchor="middle" font-family="Arial" font-size="12" fill="#475569">60</text><line x1="956" y1="30" x2="956" y2="488" stroke="#F1F5F9" stroke-width="1"/><text x="956" y="536" text-anchor="middle" font-family="Arial" font-size="12" fill="#475569">75</text><polyline fill="none" stroke="#F2A541" stroke-width="3" points="72,164.19399999999996 140,233.35199999999998 208,278.69399999999996 276,295.182 344,321.288 412,321.288 480,321.288 548,385.408 616,425.254 684,425.254 752,425.254 820,425.254 888,437.162 956,488"/><circle cx="72" cy="164.19399999999996" r="4.5" fill="#F2A541"/><text x="72" y="155.19399999999996" text-anchor="middle" font-family="Arial" font-size="11" font-weight="700" fill="#243446">70.7</text><circle cx="140" cy="233.35199999999998" r="4.5" fill="#F2A541"/><text x="140" y="224.35199999999998" text-anchor="middle" font-family="Arial" font-size="11" font-weight="700" fill="#243446">55.6</text><circle cx="208" cy="278.69399999999996" r="4.5" fill="#F2A541"/><text x="208" y="269.69399999999996" text-anchor="middle" font-family="Arial" font-size="11" font-weight="700" fill="#243446">45.7</text><circle cx="276" cy="295.182" r="4.5" fill="#F2A541"/><text x="276" y="286.182" text-anchor="middle" font-family="Arial" font-size="11" font-weight="700" fill="#243446">42.1</text><circle cx="344" cy="321.288" r="4.5" fill="#F2A541"/><text x="344" y="312.288" text-anchor="middle" font-family="Arial" font-size="11" font-weight="700" fill="#243446">36.4</text><circle cx="412" cy="321.288" r="4.5" fill="#F2A541"/><text x="412" y="312.288" text-anchor="middle" font-family="Arial" font-size="11" font-weight="700" fill="#243446">36.4</text><circle cx="480" cy="321.288" r="4.5" fill="#F2A541"/><text x="480" y="312.288" text-anchor="middle" font-family="Arial" font-size="11" font-weight="700" fill="#243446">36.4</text><circle cx="548" cy="385.408" r="4.5" fill="#F2A541"/><text x="548" y="376.408" text-anchor="middle" font-family="Arial" font-size="11" font-weight="700" fill="#243446">22.4</text><circle cx="616" cy="425.254" r="4.5" fill="#F2A541"/><text x="616" y="416.254" text-anchor="middle" font-family="Arial" font-size="11" font-weight="700" fill="#243446">13.7</text><circle cx="684" cy="425.254" r="4.5" fill="#F2A541"/><text x="684" y="416.254" text-anchor="middle" font-family="Arial" font-size="11" font-weight="700" fill="#243446">13.7</text><circle cx="752" cy="425.254" r="4.5" fill="#F2A541"/><text x="752" y="416.254" text-anchor="middle" font-family="Arial" font-size="11" font-weight="700" fill="#243446">13.7</text><circle cx="820" cy="425.254" r="4.5" fill="#F2A541"/><text x="820" y="416.254" text-anchor="middle" font-family="Arial" font-size="11" font-weight="700" fill="#243446">13.7</text><circle cx="888" cy="437.162" r="4.5" fill="#F2A541"/><text x="888" y="428.162" text-anchor="middle" font-family="Arial" font-size="11" font-weight="700" fill="#243446">11.1</text><circle cx="956" cy="488" r="4.5" fill="#F2A541"/><text x="956" y="479" text-anchor="middle" font-family="Arial" font-size="11" font-weight="700" fill="#243446">0.0</text><polyline fill="none" stroke="#3E7BFA" stroke-width="3" points="72,119.76799999999997 140,149.53799999999995 208,182.514 276,195.33800000000002 344,220.986 412,220.986 480,220.986 548,335.486 616,335.486 684,335.486 752,335.486 820,335.486 888,411.514 956,488"/><circle cx="72" cy="119.76799999999997" r="4.5" fill="#3E7BFA"/><text x="72" y="110.76799999999997" text-anchor="middle" font-family="Arial" font-size="11" font-weight="700" fill="#243446">80.4</text><circle cx="140" cy="149.53799999999995" r="4.5" fill="#3E7BFA"/><text x="140" y="140.53799999999995" text-anchor="middle" font-family="Arial" font-size="11" font-weight="700" fill="#243446">73.9</text><circle cx="208" cy="182.514" r="4.5" fill="#3E7BFA"/><text x="208" y="173.514" text-anchor="middle" font-family="Arial" font-size="11" font-weight="700" fill="#243446">66.7</text><circle cx="276" cy="195.33800000000002" r="4.5" fill="#3E7BFA"/><text x="276" y="186.33800000000002" text-anchor="middle" font-family="Arial" font-size="11" font-weight="700" fill="#243446">63.9</text><circle cx="344" cy="220.986" r="4.5" fill="#3E7BFA"/><text x="344" y="211.986" text-anchor="middle" font-family="Arial" font-size="11" font-weight="700" fill="#243446">58.3</text><circle cx="412" cy="220.986" r="4.5" fill="#3E7BFA"/><text x="412" y="211.986" text-anchor="middle" font-family="Arial" font-size="11" font-weight="700" fill="#243446">58.3</text><circle cx="480" cy="220.986" r="4.5" fill="#3E7BFA"/><text x="480" y="211.986" text-anchor="middle" font-family="Arial" font-size="11" font-weight="700" fill="#243446">58.3</text><circle cx="548" cy="335.486" r="4.5" fill="#3E7BFA"/><text x="548" y="326.486" text-anchor="middle" font-family="Arial" font-size="11" font-weight="700" fill="#243446">33.3</text><circle cx="616" cy="335.486" r="4.5" fill="#3E7BFA"/><text x="616" y="326.486" text-anchor="middle" font-family="Arial" font-size="11" font-weight="700" fill="#243446">33.3</text><circle cx="684" cy="335.486" r="4.5" fill="#3E7BFA"/><text x="684" y="326.486" text-anchor="middle" font-family="Arial" font-size="11" font-weight="700" fill="#243446">33.3</text><circle cx="752" cy="335.486" r="4.5" fill="#3E7BFA"/><text x="752" y="326.486" text-anchor="middle" font-family="Arial" font-size="11" font-weight="700" fill="#243446">33.3</text><circle cx="820" cy="335.486" r="4.5" fill="#3E7BFA"/><text x="820" y="326.486" text-anchor="middle" font-family="Arial" font-size="11" font-weight="700" fill="#243446">33.3</text><circle cx="888" cy="411.514" r="4.5" fill="#3E7BFA"/><text x="888" y="402.514" text-anchor="middle" font-family="Arial" font-size="11" font-weight="700" fill="#243446">16.7</text><circle cx="956" cy="488" r="4.5" fill="#3E7BFA"/><text x="956" y="479" text-anchor="middle" font-family="Arial" font-size="11" font-weight="700" fill="#243446">0.0</text><line x1="72" y1="517" x2="88" y2="517" stroke="#F2A541" stroke-width="3"/><circle cx="80" cy="517" r="4" fill="#F2A541"/><text x="96" y="522" font-family="Arial" font-size="12" fill="#243446">Elastic mean F1</text><line x1="242" y1="517" x2="258" y2="517" stroke="#3E7BFA" stroke-width="3"/><circle cx="250" cy="517" r="4" fill="#3E7BFA"/><text x="266" y="522" font-family="Arial" font-size="12" fill="#243446">Elastic mean precision</text></svg>