<svg xmlns="http://www.w3.org/2000/svg" width="980" height="560" viewBox="0 0 980 560"><rect width="980" height="560" fill="#ffffff"/><line x1="72" y1="488" x2="956" y2="488" stroke="#E2E8F0" stroke-width="1"/><text x="62" y="492" text-anchor="end" font-family="Arial" font-size="12" fill="#64748B">0</text><line x1="72" y1="396.4" x2="956" y2="396.4" stroke="#E2E8F0" stroke-width="1"/><text x="62" y="400.4" text-anchor="end" font-family="Arial" font-size="12" fill="#64748B">20</text><line x1="72" y1="304.79999999999995" x2="956" y2="304.79999999999995" stroke="#E2E8F0" stroke-width="1"/><text x="62" y="308.79999999999995" text-anchor="end" font-family="Arial" font-size="12" fill="#64748B">40</text><line x1="72" y1="213.2" x2="956" y2="213.2" stroke="#E2E8F0" stroke-width="1"/><text x="62" y="217.2" text-anchor="end" font-family="Arial" font-size="12" fill="#64748B">60</text><line x1="72" y1="121.59999999999997" x2="956" y2="121.59999999999997" stroke="#E2E8F0" stroke-width="1"/><text x="62" y="125.59999999999997" text-anchor="end" font-family="Arial" font-size="12" fill="#64748B">80</text><line x1="72" y1="30" x2="956" y2="30" stroke="#E2E8F0" stroke-width="1"/><text x="62" y="34" text-anchor="end" font-family="Arial" font-size="12" fill="#64748B">100</text><rect x="143.33333333333334" y="30" width="32" height="458" rx="4" ry="4" fill="#0F8B8D"/><text x="159.33333333333334" y="22" text-anchor="middle" font-family="Arial" font-size="12" font-weight="700" fill="#243446">100.0</text><rect x="183.33333333333334" y="30" width="32" height="458" rx="4" ry="4" fill="#2AA66D"/><text x="199.33333333333334" y="22" text-anchor="middle" font-family="Arial" font-size="12" font-weight="700" fill="#243446">100.0</text><rect x="223.33333333333334" y="119.76799999999997" width="32" height="368.232" rx="4" ry="4" fill="#F2A541"/><text x="239.33333333333334" y="111.76799999999997" text-anchor="middle" font-family="Arial" font-size="12" font-weight="700" fill="#243446">80.4</text><rect x="263.33333333333337" y="335.486" width="32" height="152.51399999999998" rx="4" ry="4" fill="#D95D5D"/><text x="279.33333333333337" y="327.486" text-anchor="middle" font-family="Arial" font-size="12" font-weight="700" fill="#243446">33.3</text><text x="219.33333333333334" y="536" text-anchor="middle" font-family="Arial" font-size="12" fill="#475569">Precision</text><rect x="438" y="61.60200000000003" width="32" height="426.39799999999997" rx="4" ry="4" fill="#0F8B8D"/><text x="454" y="53.60200000000003" text-anchor="middle" font-family="Arial" font-size="12" font-weight="700" fill="#243446">93.1</text><rect x="478" y="36.41199999999998" width="32" height="451.588" rx="4" ry="4" fill="#2AA66D"/><text x="494" y="28.411999999999978" text-anchor="middle" font-family="Arial" font-size="12" font-weight="700" fill="#243446">98.6</text><rect x="518" y="190.3" width="32" height="297.7" rx="4" ry="4" fill="#F2A541"/><text x="534" y="182.3" text-anchor="middle" font-family="Arial" font-size="12" font-weight="700" fill="#243446">65.0</text><rect x="558" y="443.574" width="32" height="44.425999999999995" rx="4" ry="4" fill="#D95D5D"/><text x="574" y="435.574" text-anchor="middle" font-family="Arial" font-size="12" font-weight="700" fill="#243446">9.7</text><text x="514" y="536" text-anchor="middle" font-family="Arial" font-size="12" fill="#475569">Recall</text><rect x="732.6666666666667" y="50.152000000000044" width="32" height="437.84799999999996" rx="4" ry="4" fill="#0F8B8D"/><text x="748.6666666666667" y="42.152000000000044" text-anchor="middle" font-family="Arial" font-size="12" font-weight="700" fill="#243446">95.6</text><rect x="772.6666666666667" y="33.20600000000002" width="32" height="454.794" rx="4" ry="4" fill="#2AA66D"/><text x="788.6666666666667" y="25.206000000000017" text-anchor="middle" font-family="Arial" font-size="12" font-weight="700" fill="#243446">99.3</text><rect x="812.6666666666667" y="164.19399999999996" width="32" height="323.80600000000004" rx="4" ry="4" fill="#F2A541"/><text x="828.6666666666667" y="156.19399999999996" text-anchor="middle" font-family="Arial" font-size="12" font-weight="700" fill="#243446">70.7</text><rect x="852.6666666666667" y="425.254" width="32" height="62.745999999999995" rx="4" ry="4" fill="#D95D5D"/><text x="868.6666666666667" y="417.254" text-anchor="middle" font-family="Arial" font-size="12" font-weight="700" fill="#243446">13.7</text><text x="808.6666666666667" y="536" text-anchor="middle" font-family="Arial" font-size="12" fill="#475569">F1</text><rect x="72" y="510" width="14" height="14" rx="3" fill="#0F8B8D"/><text x="94" y="522" font-family="Arial" font-size="12" fill="#243446">Bizim default</text><rect x="222" y="510" width="14" height="14" rx="3" fill="#2AA66D"/><text x="244" y="522" font-family="Arial" font-size="12" fill="#243446">Bizim tuned</text><rect x="372" y="510" width="14" height="14" rx="3" fill="#F2A541"/><text x="394" y="522" font-family="Arial" font-size="12" fill="#243446">Elastic best</text><rect x="522" y="510" width="14" height="14" rx="3" fill="#D95D5D"/><text x="544" y="522" font-family="Arial" font-size="12" fill="#243446">Elastic standard</text></svg>