<svg xmlns="http://www.w3.org/2000/svg" width="1200" height="760" viewBox="0 0 1200 760">
  <rect width="1200" height="760" fill="#fbfcfe" rx="24"/>
  <text x="40" y="42" font-family="Segoe UI, Arial, sans-serif" font-size="28" font-weight="700" fill="#0f172a">error_burst_mad - Current detector</text>
  <text x="40" y="68" font-family="Segoe UI, Arial, sans-serif" font-size="15" fill="#475569">default config | precision=1.0 | F1=1.0</text>
  <text x="40" y="108" font-family="Segoe UI, Arial, sans-serif" font-size="16" font-weight="700" fill="#0f172a">Signal and expected band</text>
  <rect x="70" y="90" width="1100" height="270" fill="#ffffff" stroke="#dbe4f0"/>
  <line x1="70" y1="360" x2="1170" y2="360" stroke="#94a3b8"/>
  <line x1="70" y1="90" x2="70" y2="360" stroke="#94a3b8"/>
  <polygon points="104.7,284.7 116.3,290.7 127.9,290.9 139.5,293.9 151.1,292.3 162.6,291.3 174.2,292.3 185.8,291.1 197.4,290.1 208.9,288.5 220.5,288.9 232.1,288.3 243.7,287.0 255.3,285.4 266.8,288.0 278.4,292.3 290.0,286.2 301.6,286.2 313.2,290.0 324.7,285.5 336.3,285.5 347.9,288.3 359.5,284.0 371.1,286.2 382.6,283.7 394.2,285.2 405.8,286.2 417.4,284.0 428.9,286.2 440.5,283.7 452.1,283.8 463.7,282.3 475.3,281.5 486.8,285.1 498.4,285.1 510.0,280.1 521.6,285.1 533.2,285.2 544.7,280.1 556.3,280.5 567.9,278.5 579.5,283.2 591.1,281.5 602.6,278.5 614.2,272.3 625.8,271.6 637.4,252.4 648.9,254.3 660.5,249.8 672.1,251.0 683.7,253.4 695.3,249.8 706.8,257.7 718.4,257.7 730.0,277.5 741.6,286.3 753.2,286.3 764.7,286.3 776.3,289.2 787.9,286.3 799.5,281.9 811.1,281.9 822.6,279.1 834.2,281.9 845.8,281.9 857.4,281.1 868.9,281.9 880.5,283.6 892.1,285.4 903.7,288.8 915.3,288.8 926.8,288.8 938.4,292.1 950.0,292.3 961.6,290.3 973.2,290.3 984.7,290.3 996.3,293.6 1007.9,295.5 1019.5,295.4 1031.1,295.4 1042.6,293.0 1054.2,291.7 1065.8,293.0 1077.4,291.6 1088.9,291.7 1100.5,291.7 1112.1,291.6 1123.7,284.3 1135.3,284.0 1146.8,281.2 1158.4,281.2 1170.0,284.0 1170.0,313.3 1158.4,316.1 1146.8,316.7 1135.3,313.3 1123.7,313.6 1112.1,306.8 1100.5,307.0 1088.9,307.0 1077.4,306.8 1065.8,305.3 1054.2,305.9 1042.6,305.3 1031.1,303.0 1019.5,303.0 1007.9,303.1 996.3,305.0 984.7,308.0 973.2,307.9 961.6,307.9 950.0,304.6 938.4,304.8 926.8,309.4 915.3,309.4 903.7,309.4 892.1,311.4 880.5,310.9 868.9,312.6 857.4,315.6 845.8,316.4 834.2,316.4 822.6,315.9 811.1,316.4 799.5,316.4 787.9,312.0 776.3,309.5 764.7,312.0 753.2,312.0 741.6,312.0 730.0,317.2 718.4,332.8 706.8,332.8 695.3,337.2 683.7,334.6 672.1,336.4 660.5,337.5 648.9,333.0 637.4,334.2 625.8,317.8 614.2,317.9 602.6,311.7 591.1,308.7 579.5,309.0 567.9,311.7 556.3,311.8 544.7,313.6 533.2,312.5 521.6,312.5 510.0,313.6 498.4,312.5 486.8,312.5 475.3,316.2 463.7,315.4 452.1,313.9 440.5,313.8 428.9,311.7 417.4,314.0 405.8,311.8 394.2,312.2 382.6,313.7 371.1,311.8 359.5,314.0 347.9,311.5 336.3,312.5 324.7,312.5 313.2,308.6 301.6,312.4 290.0,312.3 278.4,306.9 266.8,311.2 255.3,313.8 243.7,311.4 232.1,308.2 220.5,307.4 208.9,306.2 197.4,303.9 185.8,303.6 174.2,301.7 162.6,303.4 151.1,301.7 139.5,299.9 127.9,302.7 116.3,302.9 104.7,308.9" fill="#dbeafe" fill-opacity="0.65" stroke="none"/>
  <polyline points="104.7,296.8 116.3,296.8 127.9,296.8 139.5,296.9 151.1,297.0 162.6,297.4 174.2,297.0 185.8,297.4 197.4,297.0 208.9,297.4 220.5,298.2 232.1,298.3 243.7,299.2 255.3,299.6 266.8,299.6 278.4,299.6 290.0,299.3 301.6,299.3 313.2,299.3 324.7,299.0 336.3,299.0 347.9,299.9 359.5,299.0 371.1,299.0 382.6,298.7 394.2,298.7 405.8,299.0 417.4,299.0 428.9,299.0 440.5,298.8 452.1,298.8 463.7,298.8 475.3,298.8 486.8,298.8 498.4,298.8 510.0,296.9 521.6,298.8 533.2,298.9 544.7,296.9 556.3,296.2 567.9,295.1 579.5,296.1 591.1,295.1 602.6,295.1 614.2,295.1 625.8,294.7 637.4,293.3 648.9,293.7 660.5,293.7 672.1,293.7 683.7,294.0 695.3,293.5 706.8,295.3 718.4,295.3 730.0,297.4 741.6,299.2 753.2,299.2 764.7,299.2 776.3,299.4 787.9,299.2 799.5,299.2 811.1,299.2 822.6,297.5 834.2,299.1 845.8,299.1 857.4,298.4 868.9,297.2 880.5,297.2 892.1,298.4 903.7,299.1 915.3,299.1 926.8,299.1 938.4,298.5 950.0,298.5 961.6,299.1 973.2,299.1 984.7,299.1 996.3,299.3 1007.9,299.3 1019.5,299.2 1031.1,299.2 1042.6,299.2 1054.2,298.8 1065.8,299.2 1077.4,299.2 1088.9,299.3 1100.5,299.3 1112.1,299.2 1123.7,298.9 1135.3,298.7 1146.8,298.9 1158.4,298.6 1170.0,298.6" fill="none" stroke="#1d4ed8" stroke-width="2" stroke-dasharray="6 5"/>
  <polyline points="70.0,296.8 81.6,298.6 93.2,288.6 104.7,296.8 116.3,297.7 127.9,297.0 139.5,299.7 151.1,300.3 162.6,296.7 174.2,299.5 185.8,296.0 197.4,298.8 208.9,303.3 220.5,301.9 232.1,300.7 243.7,303.9 255.3,298.5 266.8,299.1 278.4,295.6 290.0,300.7 301.6,298.9 313.2,296.6 324.7,296.2 336.3,301.1 347.9,294.0 359.5,300.0 371.1,294.9 382.6,299.1 394.2,299.4 405.8,301.8 417.4,298.6 428.9,291.5 440.5,300.0 452.1,293.9 463.7,294.5 475.3,299.3 486.8,295.1 498.4,294.3 510.0,299.1 521.6,299.7 533.2,295.1 544.7,297.2 556.3,292.3 567.9,297.0 579.5,128.2 591.1,154.7 602.6,158.5 614.2,148.3 625.8,112.5 637.4,299.4 648.9,300.7 660.5,295.7 672.1,299.3 683.7,294.8 695.3,301.0 706.8,299.0 718.4,299.8 730.0,301.2 741.6,290.6 753.2,293.5 764.7,300.0 776.3,296.0 787.9,303.3 799.5,294.7 811.1,295.2 822.6,299.2 834.2,299.2 845.8,297.5 857.4,296.9 868.9,299.3 880.5,300.6 892.1,299.0 903.7,299.4 915.3,296.0 926.8,298.0 938.4,297.6 950.0,302.9 961.6,299.3 973.2,299.3 984.7,299.7 996.3,298.6 1007.9,299.1 1019.5,302.5 1031.1,295.6 1042.6,295.6 1054.2,299.7 1065.8,296.4 1077.4,300.8 1088.9,301.8 1100.5,298.8 1112.1,293.8 1123.7,298.5 1135.3,302.5 1146.8,297.5 1158.4,299.8 1170.0,300.2" fill="none" stroke="#0f172a" stroke-width="2.5"/>
  <circle cx="579.5" cy="128.2" r="4.5" fill="#ef4444" stroke="#7f1d1d" stroke-width="1"/><circle cx="591.1" cy="154.7" r="4.5" fill="#ef4444" stroke="#7f1d1d" stroke-width="1"/><circle cx="602.6" cy="158.5" r="4.5" fill="#ef4444" stroke="#7f1d1d" stroke-width="1"/><circle cx="614.2" cy="148.3" r="4.5" fill="#ef4444" stroke="#7f1d1d" stroke-width="1"/><circle cx="625.8" cy="112.5" r="4.5" fill="#ef4444" stroke="#7f1d1d" stroke-width="1"/>
  <circle cx="579.5" cy="128.2" r="6" fill="none" stroke="#111827" stroke-width="2"/><circle cx="591.1" cy="154.7" r="6" fill="none" stroke="#111827" stroke-width="2"/><circle cx="602.6" cy="158.5" r="6" fill="none" stroke="#111827" stroke-width="2"/><circle cx="614.2" cy="148.3" r="6" fill="none" stroke="#111827" stroke-width="2"/><circle cx="625.8" cy="112.5" r="6" fill="none" stroke="#111827" stroke-width="2"/>
  <text x="40" y="448" font-family="Segoe UI, Arial, sans-serif" font-size="16" font-weight="700" fill="#0f172a">Raw score vs threshold</text>
  <rect x="70" y="430" width="1100" height="220" fill="#ffffff" stroke="#dbe4f0"/>
  <line x1="70" y1="650" x2="1170" y2="650" stroke="#94a3b8"/>
  <line x1="70" y1="430" x2="70" y2="650" stroke="#94a3b8"/>
  <line x1="70" y1="617.7" x2="1170" y2="617.7" stroke="#ef4444" stroke-width="2" stroke-dasharray="7 5"/>
  <polyline points="70.0,631.7 81.6,631.7 93.2,631.7 104.7,631.6 116.3,629.6 127.9,631.2 139.5,618.7 151.1,621.9 162.6,630.3 174.2,624.2 185.8,628.6 197.4,627.9 208.9,622.4 220.5,626.0 232.1,628.3 243.7,626.3 255.3,630.6 266.8,631.0 278.4,624.1 290.0,630.2 301.6,631.3 313.2,627.7 324.7,628.8 336.3,629.5 347.9,624.6 359.5,630.7 371.1,627.2 382.6,631.3 394.2,630.9 405.8,628.6 417.4,631.3 428.9,623.5 440.5,630.5 452.1,627.1 463.7,628.0 475.3,631.3 486.8,627.9 498.4,627.1 510.0,629.8 521.6,630.8 533.2,627.8 544.7,631.3 556.3,628.2 567.9,630.1 579.5,449.9 591.1,487.1 602.6,517.1 614.2,542.0 625.8,521.4 637.4,629.6 648.9,629.2 660.5,631.0 672.1,629.8 683.7,631.4 695.3,629.3 706.8,630.3 718.4,630.0 730.0,629.0 741.6,622.3 753.2,625.5 764.7,630.7 776.3,627.0 787.9,627.2 799.5,628.1 811.1,628.4 822.6,630.4 834.2,631.6 845.8,630.4 857.4,630.5 868.9,629.8 880.5,628.2 892.1,631.0 903.7,631.2 915.3,627.5 926.8,630.2 938.4,629.7 950.0,621.6 961.6,631.3 973.2,631.3 984.7,630.8 996.3,629.9 1007.9,630.9 1019.5,619.4 1031.1,618.3 1042.6,623.6 1054.2,630.0 1065.8,625.4 1077.4,628.6 1088.9,627.2 1100.5,630.7 1112.1,621.8 1123.7,631.3 1135.3,628.0 1146.8,630.6 1158.4,630.7 1170.0,630.2" fill="none" stroke="#7c3aed" stroke-width="2.5"/>
  <text x="82" y="609.7" font-family="Segoe UI, Arial, sans-serif" font-size="13" fill="#b91c1c">threshold=4.50</text>
  <g transform="translate(40, 690)">
    <circle cx="0" cy="0" r="5" fill="#ef4444" stroke="#7f1d1d" stroke-width="1"/>
    <text x="14" y="5" font-family="Segoe UI, Arial, sans-serif" font-size="14" fill="#334155">Detector anomaly</text>
    <circle cx="180" cy="0" r="6" fill="none" stroke="#111827" stroke-width="2"/>
    <text x="196" y="5" font-family="Segoe UI, Arial, sans-serif" font-size="14" fill="#334155">Labeled anomaly</text>
  </g>
</svg>
