<svg xmlns="http://www.w3.org/2000/svg" width="1200" height="760" viewBox="0 0 1200 760">
  <rect width="1200" height="760" fill="#fffdf8" rx="24"/>
  <text x="40" y="42" font-family="Segoe UI, Arial, sans-serif" font-size="28" font-weight="700" fill="#0f172a">Elastic result view</text>
  <text x="40" y="68" font-family="Segoe UI, Arial, sans-serif" font-size="15" fill="#475569">error_burst_mad imported from Elastic records export | threshold=1.0</text>
  <text x="40" y="108" font-family="Segoe UI, Arial, sans-serif" font-size="16" font-weight="700" fill="#0f172a">Signal with Elastic anomaly markers</text>
  <rect x="70" y="90" width="1100" height="270" fill="#ffffff" stroke="#dbe4f0"/>
  <line x1="70" y1="360" x2="1170" y2="360" stroke="#94a3b8"/>
  <line x1="70" y1="90" x2="70" y2="360" stroke="#94a3b8"/>
  <polyline points="70.0,329.2 81.6,331.4 93.2,319.6 104.7,329.2 116.3,330.3 127.9,329.4 139.5,332.6 151.1,333.3 162.6,329.1 174.2,332.4 185.8,328.2 197.4,331.6 208.9,336.8 220.5,335.3 232.1,333.7 243.7,337.5 255.3,331.2 266.8,331.9 278.4,327.8 290.0,333.8 301.6,331.7 313.2,329.0 324.7,328.5 336.3,334.3 347.9,325.9 359.5,333.0 371.1,326.9 382.6,331.9 394.2,332.3 405.8,335.0 417.4,331.3 428.9,323.0 440.5,333.0 452.1,325.8 463.7,326.5 475.3,332.2 486.8,327.2 498.4,326.3 510.0,331.9 521.6,332.7 533.2,327.2 544.7,329.7 556.3,323.9 567.9,329.5 579.5,130.9 591.1,162.1 602.6,166.6 614.2,154.6 625.8,112.5 637.4,332.3 648.9,333.8 660.5,327.9 672.1,332.2 683.7,326.8 695.3,334.2 706.8,331.8 718.4,332.7 730.0,334.3 741.6,321.9 753.2,325.3 764.7,333.0 776.3,328.3 787.9,336.9 799.5,326.7 811.1,327.3 822.6,332.0 834.2,332.1 845.8,330.1 857.4,329.4 868.9,332.1 880.5,333.7 892.1,331.8 903.7,332.3 915.3,328.3 926.8,330.6 938.4,330.1 950.0,336.4 961.6,332.2 973.2,332.2 984.7,332.6 996.3,331.3 1007.9,331.9 1019.5,335.9 1031.1,327.8 1042.6,327.8 1054.2,332.6 1065.8,328.8 1077.4,334.0 1088.9,335.1 1100.5,331.5 1112.1,325.7 1123.7,331.2 1135.3,335.9 1146.8,330.1 1158.4,332.7 1170.0,333.2" fill="none" stroke="#334155" stroke-width="2.5"/>
  <line x1="567.9" y1="362.5" x2="567.9" y2="280.3" stroke="#86efac" stroke-width="3" stroke-linecap="round"/><line x1="579.5" y1="362.5" x2="579.5" y2="262.6" stroke="#86efac" stroke-width="3" stroke-linecap="round"/><line x1="591.1" y1="362.5" x2="591.1" y2="242.6" stroke="#86efac" stroke-width="3" stroke-linecap="round"/><line x1="602.6" y1="362.5" x2="602.6" y2="221.1" stroke="#86efac" stroke-width="3" stroke-linecap="round"/><line x1="614.2" y1="362.5" x2="614.2" y2="193.6" stroke="#86efac" stroke-width="3" stroke-linecap="round"/>
  <rect x="564.9" y="325.3" width="6" height="6" fill="#2563eb"/><rect x="576.5" y="323.3" width="6" height="6" fill="#2563eb"/><rect x="588.1" y="320.5" width="6" height="6" fill="#2563eb"/><rect x="599.6" y="317.3" width="6" height="6" fill="#2563eb"/><rect x="611.2" y="313.9" width="6" height="6" fill="#2563eb"/>
  <circle cx="567.9" cy="329.5" r="5.5" fill="#16a34a" stroke="#14532d" stroke-width="1"/><circle cx="579.5" cy="130.9" r="5.5" fill="#16a34a" stroke="#14532d" stroke-width="1"/><circle cx="591.1" cy="162.1" r="5.5" fill="#16a34a" stroke="#14532d" stroke-width="1"/><circle cx="602.6" cy="166.6" r="5.5" fill="#16a34a" stroke="#14532d" stroke-width="1"/><circle cx="614.2" cy="154.6" r="5.5" fill="#f59e0b" stroke="#14532d" stroke-width="1"/>
  <text x="40" y="448" font-family="Segoe UI, Arial, sans-serif" font-size="16" font-weight="700" fill="#0f172a">Elastic record_score</text>
  <rect x="70" y="430" width="1100" height="220" fill="#ffffff" stroke="#dbe4f0"/>
  <line x1="70" y1="650" x2="1170" y2="650" stroke="#94a3b8"/>
  <line x1="70" y1="430" x2="70" y2="650" stroke="#94a3b8"/>
  <line x1="70" y1="627.9" x2="1170" y2="627.9" stroke="#f59e0b" stroke-width="2" stroke-dasharray="7 5"/>
  <polyline points="567.9,448.3 579.5,567.6 591.1,618.9 602.6,627.1 614.2,628.8" fill="none" stroke="#16a34a" stroke-width="2.5"/>
  <circle cx="567.9" cy="448.3" r="4.5" fill="#16a34a"/><circle cx="579.5" cy="567.6" r="4.5" fill="#16a34a"/><circle cx="591.1" cy="618.9" r="4.5" fill="#16a34a"/><circle cx="602.6" cy="627.1" r="4.5" fill="#16a34a"/><circle cx="614.2" cy="628.8" r="4.5" fill="#16a34a"/>
  <g transform="translate(40, 690)">
    <circle cx="0" cy="0" r="5" fill="#16a34a" stroke="#14532d" stroke-width="1"/>
    <text x="14" y="5" font-family="Segoe UI, Arial, sans-serif" font-size="14" fill="#334155">Elastic anomaly (score >= threshold)</text>
    <circle cx="290" cy="0" r="5" fill="#f59e0b" stroke="#92400e" stroke-width="1"/>
    <text x="304" y="5" font-family="Segoe UI, Arial, sans-serif" font-size="14" fill="#334155">Elastic record below threshold</text>
    <rect x="570" y="-4" width="8" height="8" fill="#2563eb"/>
    <text x="586" y="5" font-family="Segoe UI, Arial, sans-serif" font-size="14" fill="#334155">Elastic typical</text>
  </g>
</svg>
