<svg xmlns="http://www.w3.org/2000/svg" width="1200" height="760" viewBox="0 0 1200 760">
  <rect width="1200" height="760" fill="#fbfcfe" rx="24"/>
  <text x="40" y="42" font-family="Segoe UI, Arial, sans-serif" font-size="28" font-weight="700" fill="#0f172a">latency_spike_mad - Tuned detector</text>
  <text x="40" y="68" font-family="Segoe UI, Arial, sans-serif" font-size="15" fill="#475569">best benchmark config | precision=1.0 | F1=1.0</text>
  <text x="40" y="108" font-family="Segoe UI, Arial, sans-serif" font-size="16" font-weight="700" fill="#0f172a">Signal and expected band</text>
  <rect x="70" y="90" width="1100" height="270" fill="#ffffff" stroke="#dbe4f0"/>
  <line x1="70" y1="360" x2="1170" y2="360" stroke="#94a3b8"/>
  <line x1="70" y1="90" x2="70" y2="360" stroke="#94a3b8"/>
  <polygon points="104.7,271.6 116.3,269.4 127.9,269.9 139.5,269.1 151.1,276.9 162.6,268.0 174.2,258.5 185.8,264.4 197.4,258.5 208.9,268.0 220.5,271.2 232.1,272.3 243.7,268.0 255.3,271.8 266.8,271.6 278.4,268.5 290.0,264.3 301.6,264.1 313.2,269.3 324.7,277.4 336.3,281.2 347.9,287.6 359.5,287.6 371.1,287.6 382.6,283.8 394.2,279.5 405.8,283.8 417.4,276.6 428.9,276.6 440.5,281.6 452.1,277.1 463.7,277.5 475.3,270.1 486.8,274.1 498.4,268.8 510.0,269.6 521.6,269.6 533.2,265.1 544.7,270.1 556.3,270.8 567.9,278.6 579.5,276.7 591.1,283.8 602.6,278.2 614.2,279.7 625.8,274.8 637.4,274.8 648.9,274.2 660.5,274.2 672.1,276.5 683.7,278.8 695.3,274.3 706.8,268.5 718.4,272.6 730.0,267.4 741.6,269.8 753.2,272.4 764.7,272.4 776.3,272.4 787.9,269.5 799.5,260.9 811.1,242.4 822.6,249.2 834.2,262.4 845.8,267.6 857.4,272.3 868.9,279.5 880.5,271.2 892.1,254.9 903.7,261.7 915.3,275.5 926.8,275.5 938.4,279.3 950.0,279.3 961.6,276.3 973.2,277.5 984.7,276.4 996.3,276.5 1007.9,275.9 1019.5,275.9 1031.1,275.9 1042.6,275.7 1054.2,271.2 1065.8,276.8 1077.4,276.8 1088.9,272.9 1100.5,263.1 1112.1,257.0 1123.7,257.0 1135.3,256.7 1146.8,269.7 1158.4,263.2 1170.0,273.5 1170.0,312.0 1158.4,322.4 1146.8,315.9 1135.3,325.1 1123.7,324.7 1112.1,324.7 1100.5,319.6 1088.9,309.9 1077.4,305.5 1065.8,305.5 1054.2,311.1 1042.6,306.6 1031.1,306.8 1019.5,306.8 1007.9,306.8 996.3,307.4 984.7,310.4 973.2,308.8 961.6,310.5 950.0,307.5 938.4,307.5 926.8,311.3 915.3,311.3 903.7,325.1 892.1,332.0 880.5,315.6 868.9,305.7 857.4,312.2 845.8,316.9 834.2,319.4 822.6,332.7 811.1,337.5 799.5,321.2 787.9,314.3 776.3,314.6 764.7,314.6 753.2,314.6 741.6,314.6 730.0,320.8 718.4,318.3 706.8,320.3 695.3,316.6 683.7,309.9 672.1,314.5 660.5,317.3 648.9,317.3 637.4,316.4 625.8,316.4 614.2,310.0 602.6,313.0 591.1,307.2 579.5,315.1 567.9,313.8 556.3,322.0 544.7,322.7 533.2,327.8 521.6,322.2 510.0,322.2 498.4,321.4 486.8,316.1 475.3,321.8 463.7,314.4 452.1,314.0 440.5,308.5 428.9,313.5 417.4,313.5 405.8,307.5 394.2,310.6 382.6,307.5 371.1,305.0 359.5,305.0 347.9,305.0 336.3,310.3 324.7,312.7 313.2,322.3 301.6,329.7 290.0,325.0 278.4,317.3 266.8,314.2 255.3,317.3 243.7,321.1 232.1,313.6 220.5,315.3 208.9,321.6 197.4,333.9 185.8,330.6 174.2,333.9 162.6,321.6 151.1,315.5 139.5,326.0 127.9,327.8 116.3,323.0 104.7,315.5" fill="#dbeafe" fill-opacity="0.65" stroke="none"/>
  <polyline points="104.7,293.5 116.3,296.2 127.9,298.9 139.5,297.5 151.1,296.2 162.6,294.8 174.2,296.2 185.8,297.5 197.4,296.2 208.9,294.8 220.5,293.2 232.1,292.9 243.7,294.6 255.3,294.6 266.8,292.9 278.4,292.9 290.0,294.7 301.6,296.9 313.2,295.8 324.7,295.1 336.3,295.8 347.9,296.3 359.5,296.3 371.1,296.3 382.6,295.7 394.2,295.1 405.8,295.7 417.4,295.1 428.9,295.1 440.5,295.1 452.1,295.5 463.7,296.0 475.3,296.0 486.8,295.1 498.4,295.1 510.0,295.9 521.6,295.9 533.2,296.4 544.7,296.4 556.3,296.4 567.9,296.2 579.5,295.9 591.1,295.5 602.6,295.6 614.2,294.8 625.8,295.6 637.4,295.6 648.9,295.7 660.5,295.7 672.1,295.5 683.7,294.4 695.3,295.5 706.8,294.4 718.4,295.5 730.0,294.1 741.6,292.2 753.2,293.5 764.7,293.5 776.3,293.5 787.9,291.9 799.5,291.1 811.1,289.9 822.6,290.9 834.2,290.9 845.8,292.2 857.4,292.2 868.9,292.6 880.5,293.4 892.1,293.4 903.7,293.4 915.3,293.4 926.8,293.4 938.4,293.4 950.0,293.4 961.6,293.4 973.2,293.2 984.7,293.4 996.3,291.9 1007.9,291.4 1019.5,291.4 1031.1,291.4 1042.6,291.1 1054.2,291.1 1065.8,291.1 1077.4,291.1 1088.9,291.4 1100.5,291.4 1112.1,290.8 1123.7,290.8 1135.3,290.9 1146.8,292.8 1158.4,292.8 1170.0,292.8" fill="none" stroke="#1d4ed8" stroke-width="2" stroke-dasharray="6 5"/>
  <polyline points="70.0,303.1 81.6,293.5 93.2,289.8 104.7,298.9 116.3,303.7 127.9,296.2 139.5,292.9 151.1,289.2 162.6,303.1 174.2,303.5 185.8,291.5 197.4,292.9 208.9,286.6 220.5,289.9 232.1,296.4 243.7,297.4 255.3,280.4 266.8,297.5 278.4,300.5 290.0,302.6 301.6,295.2 313.2,294.9 324.7,297.8 336.3,296.2 347.9,294.1 359.5,291.6 371.1,289.2 382.6,294.5 394.2,306.5 405.8,291.6 417.4,304.3 428.9,296.8 440.5,304.6 452.1,295.8 463.7,300.4 475.3,294.5 486.8,276.0 498.4,296.1 510.0,290.7 521.6,303.7 533.2,297.5 544.7,291.8 556.3,296.3 567.9,293.6 579.5,295.2 591.1,301.8 602.6,292.4 614.2,300.6 625.8,284.6 637.4,298.8 648.9,291.7 660.5,295.8 672.1,290.1 683.7,299.4 695.3,289.8 706.8,296.5 718.4,288.2 730.0,292.0 741.6,294.9 753.2,300.5 764.7,112.5 776.3,117.5 787.9,115.7 799.5,117.5 811.1,292.5 822.6,292.7 834.2,294.1 845.8,294.5 857.4,294.7 868.9,299.4 880.5,301.9 892.1,298.2 903.7,292.2 915.3,286.7 926.8,289.9 938.4,289.5 950.0,291.1 961.6,291.6 973.2,294.7 984.7,291.2 996.3,285.2 1007.9,297.7 1019.5,299.9 1031.1,284.0 1042.6,294.3 1054.2,290.0 1065.8,290.5 1077.4,302.6 1088.9,281.2 1100.5,285.1 1112.1,294.7 1123.7,291.3 1135.3,295.0 1146.8,301.1 1158.4,296.5 1170.0,293.5" fill="none" stroke="#0f172a" stroke-width="2.5"/>
  <circle cx="764.7" cy="112.5" r="4.5" fill="#ef4444" stroke="#7f1d1d" stroke-width="1"/><circle cx="776.3" cy="117.5" r="4.5" fill="#ef4444" stroke="#7f1d1d" stroke-width="1"/><circle cx="787.9" cy="115.7" r="4.5" fill="#ef4444" stroke="#7f1d1d" stroke-width="1"/><circle cx="799.5" cy="117.5" r="4.5" fill="#ef4444" stroke="#7f1d1d" stroke-width="1"/>
  <circle cx="764.7" cy="112.5" r="6" fill="none" stroke="#111827" stroke-width="2"/><circle cx="776.3" cy="117.5" r="6" fill="none" stroke="#111827" stroke-width="2"/><circle cx="787.9" cy="115.7" r="6" fill="none" stroke="#111827" stroke-width="2"/><circle cx="799.5" cy="117.5" r="6" fill="none" stroke="#111827" stroke-width="2"/>
  <text x="40" y="448" font-family="Segoe UI, Arial, sans-serif" font-size="16" font-weight="700" fill="#0f172a">Raw score vs threshold</text>
  <rect x="70" y="430" width="1100" height="220" fill="#ffffff" stroke="#dbe4f0"/>
  <line x1="70" y1="650" x2="1170" y2="650" stroke="#94a3b8"/>
  <line x1="70" y1="430" x2="70" y2="650" stroke="#94a3b8"/>
  <line x1="70" y1="610.6" x2="1170" y2="610.6" stroke="#ef4444" stroke-width="2" stroke-dasharray="7 5"/>
  <polyline points="70.0,631.7 81.6,631.7 93.2,631.7 104.7,626.5 116.3,625.7 127.9,629.7 139.5,628.3 151.1,624.1 162.6,625.2 174.2,627.6 185.8,627.9 197.4,629.9 208.9,625.2 220.5,628.5 232.1,628.1 243.7,629.4 255.3,618.6 266.8,627.1 278.4,625.1 290.0,626.2 301.6,630.6 313.2,631.0 324.7,628.3 336.3,631.2 347.9,626.5 359.5,620.5 371.1,614.6 382.6,629.6 394.2,616.2 405.8,624.4 417.4,621.1 428.9,629.7 440.5,616.7 452.1,631.4 463.7,626.5 475.3,630.5 486.8,612.5 498.4,630.9 510.0,627.5 521.6,625.4 533.2,631.0 544.7,628.0 556.3,631.6 567.9,628.5 579.5,630.8 591.1,620.3 602.6,627.8 614.2,623.6 625.8,620.5 637.4,628.4 648.9,627.7 660.5,631.6 672.1,625.7 683.7,624.9 695.3,626.0 706.8,629.9 718.4,625.0 730.0,630.1 741.6,629.1 753.2,624.7 764.7,451.0 776.3,456.0 787.9,466.3 799.5,510.6 811.1,630.6 822.6,630.7 834.2,629.3 845.8,629.7 857.4,629.1 868.9,620.8 880.5,623.7 892.1,629.1 903.7,630.9 915.3,623.8 926.8,627.6 938.4,625.8 950.0,628.3 961.6,629.4 973.2,629.6 984.7,628.9 996.3,622.5 1007.9,623.0 1019.5,620.0 1031.1,621.7 1042.6,627.3 1054.2,630.4 1065.8,630.8 1077.4,614.9 1088.9,620.1 1100.5,627.0 1112.1,629.3 1123.7,631.4 1135.3,629.1 1146.8,624.1 1158.4,629.1 1170.0,630.9" fill="none" stroke="#7c3aed" stroke-width="2.5"/>
  <text x="82" y="602.6" font-family="Segoe UI, Arial, sans-serif" font-size="13" fill="#b91c1c">threshold=4.00</text>
  <g transform="translate(40, 690)">
    <circle cx="0" cy="0" r="5" fill="#ef4444" stroke="#7f1d1d" stroke-width="1"/>
    <text x="14" y="5" font-family="Segoe UI, Arial, sans-serif" font-size="14" fill="#334155">Detector anomaly</text>
    <circle cx="180" cy="0" r="6" fill="none" stroke="#111827" stroke-width="2"/>
    <text x="196" y="5" font-family="Segoe UI, Arial, sans-serif" font-size="14" fill="#334155">Labeled anomaly</text>
  </g>
</svg>
