<svg xmlns="http://www.w3.org/2000/svg" width="1200" height="760" viewBox="0 0 1200 760">
  <rect width="1200" height="760" fill="#fffdf8" rx="24"/>
  <text x="40" y="42" font-family="Segoe UI, Arial, sans-serif" font-size="28" font-weight="700" fill="#0f172a">Elastic result view</text>
  <text x="40" y="68" font-family="Segoe UI, Arial, sans-serif" font-size="15" fill="#475569">resource_step_ewma imported from Elastic records export | threshold=1.0</text>
  <text x="40" y="108" font-family="Segoe UI, Arial, sans-serif" font-size="16" font-weight="700" fill="#0f172a">Signal with Elastic anomaly markers</text>
  <rect x="70" y="90" width="1100" height="270" fill="#ffffff" stroke="#dbe4f0"/>
  <line x1="70" y1="360" x2="1170" y2="360" stroke="#94a3b8"/>
  <line x1="70" y1="90" x2="70" y2="360" stroke="#94a3b8"/>
  <polyline points="70.0,308.4 79.2,313.5 88.5,315.5 97.7,311.7 107.0,314.3 116.2,331.7 125.5,322.1 134.7,311.8 143.9,321.6 153.2,337.5 162.4,321.4 171.7,323.8 180.9,320.7 190.2,308.3 199.4,314.4 208.7,320.1 217.9,322.0 227.1,312.5 236.4,310.8 245.6,310.1 254.9,306.0 264.1,294.2 273.4,319.5 282.6,311.4 291.8,298.5 301.1,301.3 310.3,315.5 319.6,301.6 328.8,295.9 338.1,286.9 347.3,304.5 356.6,294.3 365.8,295.2 375.0,299.5 384.3,289.0 393.5,297.2 402.8,297.0 412.0,288.6 421.3,306.9 430.5,287.9 439.7,288.2 449.0,279.2 458.2,294.6 467.5,285.0 476.7,278.1 486.0,276.7 495.2,292.6 504.5,279.4 513.7,286.1 522.9,284.5 532.2,274.4 541.4,295.8 550.7,280.0 559.9,264.0 569.2,280.0 578.4,283.4 587.6,276.5 596.9,271.9 606.1,281.9 615.4,269.0 624.6,281.8 633.9,271.0 643.1,274.8 652.4,271.3 661.6,267.5 670.8,258.2 680.1,272.3 689.3,265.7 698.6,269.4 707.8,242.9 717.1,260.0 726.3,275.3 735.5,267.3 744.8,254.7 754.0,263.3 763.3,269.4 772.5,260.1 781.8,259.5 791.0,258.2 800.3,261.3 809.5,259.8 818.7,245.6 828.0,112.5 837.2,132.7 846.5,141.1 855.7,138.0 865.0,127.7 874.2,152.7 883.4,155.0 892.7,150.9 901.9,249.2 911.2,253.9 920.4,245.4 929.7,244.8 938.9,232.8 948.2,243.1 957.4,246.3 966.6,243.8 975.9,250.9 985.1,237.2 994.4,241.2 1003.6,234.8 1012.9,230.7 1022.1,219.8 1031.3,231.6 1040.6,224.2 1049.8,233.9 1059.1,237.2 1068.3,227.6 1077.6,238.4 1086.8,223.9 1096.1,230.0 1105.3,234.1 1114.5,223.0 1123.8,226.8 1133.0,216.4 1142.3,231.0 1151.5,219.4 1160.8,217.3 1170.0,226.4" fill="none" stroke="#334155" stroke-width="2.5"/>
  <line x1="818.7" y1="341.9" x2="818.7" y2="228.4" stroke="#86efac" stroke-width="3" stroke-linecap="round"/><line x1="828.0" y1="345.9" x2="828.0" y2="221.5" stroke="#86efac" stroke-width="3" stroke-linecap="round"/><line x1="837.2" y1="350.1" x2="837.2" y2="213.6" stroke="#86efac" stroke-width="3" stroke-linecap="round"/><line x1="846.5" y1="354.5" x2="846.5" y2="204.9" stroke="#86efac" stroke-width="3" stroke-linecap="round"/><line x1="855.7" y1="359.0" x2="855.7" y2="195.6" stroke="#86efac" stroke-width="3" stroke-linecap="round"/><line x1="865.0" y1="362.0" x2="865.0" y2="188.3" stroke="#86efac" stroke-width="3" stroke-linecap="round"/><line x1="874.2" y1="364.5" x2="874.2" y2="181.7" stroke="#86efac" stroke-width="3" stroke-linecap="round"/><line x1="883.4" y1="366.8" x2="883.4" y2="175.3" stroke="#86efac" stroke-width="3" stroke-linecap="round"/>
  <rect x="815.7" y="285.0" width="6" height="6" fill="#2563eb"/><rect x="825.0" y="284.2" width="6" height="6" fill="#2563eb"/><rect x="834.2" y="283.1" width="6" height="6" fill="#2563eb"/><rect x="843.5" y="281.9" width="6" height="6" fill="#2563eb"/><rect x="852.7" y="280.5" width="6" height="6" fill="#2563eb"/><rect x="862.0" y="279.1" width="6" height="6" fill="#2563eb"/><rect x="871.2" y="277.8" width="6" height="6" fill="#2563eb"/><rect x="880.4" y="276.4" width="6" height="6" fill="#2563eb"/>
  <circle cx="818.7" cy="245.6" r="5.5" fill="#16a34a" stroke="#14532d" stroke-width="1"/><circle cx="828.0" cy="112.5" r="5.5" fill="#16a34a" stroke="#14532d" stroke-width="1"/><circle cx="837.2" cy="132.7" r="5.5" fill="#16a34a" stroke="#14532d" stroke-width="1"/><circle cx="846.5" cy="141.1" r="5.5" fill="#f59e0b" stroke="#14532d" stroke-width="1"/><circle cx="855.7" cy="138.0" r="5.5" fill="#f59e0b" stroke="#14532d" stroke-width="1"/><circle cx="865.0" cy="127.7" r="5.5" fill="#f59e0b" stroke="#14532d" stroke-width="1"/><circle cx="874.2" cy="152.7" r="5.5" fill="#f59e0b" stroke="#14532d" stroke-width="1"/><circle cx="883.4" cy="155.0" r="5.5" fill="#f59e0b" stroke="#14532d" stroke-width="1"/>
  <text x="40" y="448" font-family="Segoe UI, Arial, sans-serif" font-size="16" font-weight="700" fill="#0f172a">Elastic record_score</text>
  <rect x="70" y="430" width="1100" height="220" fill="#ffffff" stroke="#dbe4f0"/>
  <line x1="70" y1="650" x2="1170" y2="650" stroke="#94a3b8"/>
  <line x1="70" y1="430" x2="70" y2="650" stroke="#94a3b8"/>
  <line x1="70" y1="628.0" x2="1170" y2="628.0" stroke="#f59e0b" stroke-width="2" stroke-dasharray="7 5"/>
  <polyline points="818.7,448.3 828.0,556.4 837.2,604.7 846.5,628.4 855.7,628.1 865.0,629.7 874.2,630.0 883.4,630.2" fill="none" stroke="#16a34a" stroke-width="2.5"/>
  <circle cx="818.7" cy="448.3" r="4.5" fill="#16a34a"/><circle cx="828.0" cy="556.4" r="4.5" fill="#16a34a"/><circle cx="837.2" cy="604.7" r="4.5" fill="#16a34a"/><circle cx="846.5" cy="628.4" r="4.5" fill="#16a34a"/><circle cx="855.7" cy="628.1" r="4.5" fill="#16a34a"/><circle cx="865.0" cy="629.7" r="4.5" fill="#16a34a"/><circle cx="874.2" cy="630.0" r="4.5" fill="#16a34a"/><circle cx="883.4" cy="630.2" r="4.5" fill="#16a34a"/>
  <g transform="translate(40, 690)">
    <circle cx="0" cy="0" r="5" fill="#16a34a" stroke="#14532d" stroke-width="1"/>
    <text x="14" y="5" font-family="Segoe UI, Arial, sans-serif" font-size="14" fill="#334155">Elastic anomaly (score >= threshold)</text>
    <circle cx="290" cy="0" r="5" fill="#f59e0b" stroke="#92400e" stroke-width="1"/>
    <text x="304" y="5" font-family="Segoe UI, Arial, sans-serif" font-size="14" fill="#334155">Elastic record below threshold</text>
    <rect x="570" y="-4" width="8" height="8" fill="#2563eb"/>
    <text x="586" y="5" font-family="Segoe UI, Arial, sans-serif" font-size="14" fill="#334155">Elastic typical</text>
  </g>
</svg>
