<svg xmlns="http://www.w3.org/2000/svg" width="1200" height="760" viewBox="0 0 1200 760">
  <rect width="1200" height="760" fill="#fbfcfe" rx="24"/>
  <text x="40" y="42" font-family="Segoe UI, Arial, sans-serif" font-size="28" font-weight="700" fill="#0f172a">resource_step_ewma - Current detector</text>
  <text x="40" y="68" font-family="Segoe UI, Arial, sans-serif" font-size="15" fill="#475569">default config | precision=1.0 | F1=1.0</text>
  <text x="40" y="108" font-family="Segoe UI, Arial, sans-serif" font-size="16" font-weight="700" fill="#0f172a">Signal and expected band</text>
  <rect x="70" y="90" width="1100" height="270" fill="#ffffff" stroke="#dbe4f0"/>
  <line x1="70" y1="360" x2="1170" y2="360" stroke="#94a3b8"/>
  <line x1="70" y1="90" x2="70" y2="360" stroke="#94a3b8"/>
  <polygon points="79.2,263.9 88.5,276.5 97.7,274.0 107.0,277.1 116.2,278.2 125.5,278.9 134.7,276.6 143.9,279.5 153.2,277.2 162.4,275.9 171.7,277.0 180.9,276.9 190.2,277.9 199.4,276.6 208.7,277.2 217.9,278.2 227.1,279.5 236.4,280.1 245.6,280.3 254.9,279.5 264.1,278.8 273.4,277.3 282.6,276.9 291.8,277.6 301.1,275.7 310.3,273.7 319.6,275.3 328.8,273.3 338.1,268.6 347.3,267.0 356.6,270.5 365.8,265.9 375.0,265.1 384.3,268.4 393.5,263.6 402.8,266.3 412.0,265.8 421.3,264.9 430.5,265.2 439.7,258.7 449.0,251.2 458.2,246.9 467.5,246.7 476.7,243.5 486.0,238.8 495.2,237.5 504.5,237.5 513.7,233.2 522.9,236.0 532.2,235.5 541.4,231.1 550.7,231.4 559.9,234.0 569.2,232.3 578.4,231.7 587.6,235.5 596.9,236.8 606.1,231.1 615.4,235.6 624.6,229.9 633.9,229.8 643.1,229.8 652.4,229.3 661.6,232.1 670.8,231.2 680.1,229.7 689.3,229.4 698.6,228.5 707.8,228.7 717.1,226.5 726.3,224.9 735.5,225.8 744.8,225.4 754.0,223.6 763.3,223.7 772.5,223.7 781.8,223.7 791.0,223.9 800.3,222.3 809.5,221.9 818.7,222.2 828.0,220.8 837.2,209.5 846.5,201.3 855.7,193.7 865.0,187.1 874.2,177.3 883.4,167.2 892.7,163.1 901.9,159.2 911.2,151.7 920.4,140.3 929.7,112.5 938.9,120.0 948.2,121.1 957.4,115.1 966.6,114.5 975.9,116.0 985.1,116.4 994.4,117.2 1003.6,118.1 1012.9,118.6 1022.1,118.7 1031.3,118.1 1040.6,118.3 1049.8,118.0 1059.1,126.4 1068.3,130.8 1077.6,139.4 1086.8,157.2 1096.1,170.9 1105.3,180.2 1114.5,189.9 1123.8,193.4 1133.0,194.6 1142.3,193.7 1151.5,198.2 1160.8,197.6 1170.0,196.9 1170.0,255.7 1160.8,256.4 1151.5,257.0 1142.3,261.1 1133.0,262.0 1123.8,263.5 1114.5,267.9 1105.3,277.0 1096.1,286.2 1086.8,300.7 1077.6,317.2 1068.3,326.1 1059.1,329.3 1049.8,336.8 1040.6,337.1 1031.3,336.9 1022.1,337.5 1012.9,337.4 1003.6,336.9 994.4,335.9 985.1,335.2 975.9,331.9 966.6,330.5 957.4,326.3 948.2,317.0 938.9,315.9 929.7,319.3 920.4,286.9 911.2,269.3 901.9,255.8 892.7,259.7 883.4,263.6 874.2,262.5 865.0,266.3 855.7,272.9 846.5,279.1 837.2,287.3 828.0,296.7 818.7,298.1 809.5,299.4 800.3,299.9 791.0,299.7 781.8,301.2 772.5,302.6 763.3,302.7 754.0,303.8 744.8,304.4 735.5,304.7 726.3,305.2 717.1,305.4 707.8,307.7 698.6,308.8 689.3,309.6 680.1,310.0 670.8,311.5 661.6,312.4 652.4,316.6 643.1,317.1 633.9,318.9 624.6,319.0 615.4,315.3 606.1,320.2 596.9,316.5 587.6,319.2 578.4,323.4 569.2,323.9 559.9,325.7 550.7,329.7 541.4,329.3 532.2,327.2 522.9,327.7 513.7,331.4 504.5,329.1 495.2,329.2 486.0,330.5 476.7,328.4 467.5,327.0 458.2,327.2 449.0,325.8 439.7,320.0 430.5,315.4 421.3,315.0 412.0,316.0 402.8,316.4 393.5,319.9 384.3,317.4 375.0,321.4 365.8,322.2 356.6,319.4 347.3,323.3 338.1,324.9 328.8,322.2 319.6,321.6 310.3,322.6 301.1,322.1 291.8,322.2 282.6,323.2 273.4,321.9 264.1,323.2 254.9,323.8 245.6,323.7 236.4,324.7 227.1,325.8 217.9,326.4 208.7,326.8 199.4,327.6 190.2,327.4 180.9,327.9 171.7,326.6 162.4,326.9 153.2,322.3 143.9,318.7 134.7,321.7 125.5,318.0 116.2,315.8 107.0,316.2 97.7,319.0 88.5,315.6 79.2,327.5" fill="#dbeafe" fill-opacity="0.65" stroke="none"/>
  <polyline points="79.2,295.7 88.5,296.0 97.7,296.5 107.0,296.6 116.2,297.0 125.5,298.4 134.7,299.2 143.9,299.1 153.2,299.7 162.4,301.4 171.7,301.8 180.9,302.4 190.2,302.7 199.4,302.1 208.7,302.0 217.9,302.3 227.1,302.7 236.4,302.4 245.6,302.0 254.9,301.6 264.1,301.0 273.4,299.6 282.6,300.0 291.8,299.9 301.1,298.9 310.3,298.1 319.6,298.4 328.8,297.7 338.1,296.7 347.3,295.2 356.6,295.0 365.8,294.1 375.0,293.3 384.3,292.9 393.5,291.8 402.8,291.3 412.0,290.9 421.3,289.9 430.5,290.3 439.7,289.3 449.0,288.5 458.2,287.1 467.5,286.8 476.7,285.9 486.0,284.7 495.2,283.4 504.5,283.3 513.7,282.3 522.9,281.9 532.2,281.4 541.4,280.2 550.7,280.6 559.9,279.8 569.2,278.1 578.4,277.6 587.6,277.3 596.9,276.6 606.1,275.7 615.4,275.5 624.6,274.4 633.9,274.3 643.1,273.5 652.4,273.0 661.6,272.3 670.8,271.4 680.1,269.9 689.3,269.5 698.6,268.7 707.8,268.2 717.1,265.9 726.3,265.0 735.5,265.2 744.8,264.9 754.0,263.7 763.3,263.2 772.5,263.1 781.8,262.5 791.0,261.8 800.3,261.1 809.5,260.7 818.7,260.2 828.0,258.7 837.2,248.4 846.5,240.2 855.7,233.3 865.0,226.7 874.2,219.9 883.4,215.4 892.7,211.4 901.9,207.5 911.2,210.5 920.4,213.6 929.7,215.9 938.9,217.9 948.2,219.0 957.4,220.7 966.6,222.5 975.9,224.0 985.1,225.8 994.4,226.5 1003.6,227.5 1012.9,228.0 1022.1,228.1 1031.3,227.5 1040.6,227.7 1049.8,227.4 1059.1,227.8 1068.3,228.4 1077.6,228.3 1086.8,228.9 1096.1,228.5 1105.3,228.6 1114.5,228.9 1123.8,228.4 1133.0,228.3 1142.3,227.4 1151.5,227.6 1160.8,227.0 1170.0,226.3" fill="none" stroke="#1d4ed8" stroke-width="2" stroke-dasharray="6 5"/>
  <polyline points="70.0,295.7 79.2,300.0 88.5,301.7 97.7,298.5 107.0,300.7 116.2,315.5 125.5,307.3 134.7,298.6 143.9,306.9 153.2,320.4 162.4,306.7 171.7,308.8 180.9,306.1 190.2,295.6 199.4,300.7 208.7,305.7 217.9,307.2 227.1,299.2 236.4,297.7 245.6,297.1 254.9,293.6 264.1,283.6 273.4,305.1 282.6,298.2 291.8,287.3 301.1,289.6 310.3,301.7 319.6,289.9 328.8,285.1 338.1,277.4 347.3,292.4 356.6,283.7 365.8,284.5 375.0,288.1 384.3,279.2 393.5,286.2 402.8,286.0 412.0,278.8 421.3,294.4 430.5,278.2 439.7,278.5 449.0,270.9 458.2,284.0 467.5,275.8 476.7,270.0 486.0,268.7 495.2,282.2 504.5,271.0 513.7,276.8 522.9,275.4 532.2,266.8 541.4,285.0 550.7,271.6 559.9,258.0 569.2,271.5 578.4,274.4 587.6,268.6 596.9,264.7 606.1,273.2 615.4,262.2 624.6,273.1 633.9,263.9 643.1,267.2 652.4,264.1 661.6,261.0 670.8,253.0 680.1,265.0 689.3,259.4 698.6,262.5 707.8,240.0 717.1,254.6 726.3,267.6 735.5,260.8 744.8,250.1 754.0,257.4 763.3,262.6 772.5,254.6 781.8,254.1 791.0,253.0 800.3,255.6 809.5,254.4 818.7,242.4 828.0,129.3 837.2,146.4 846.5,153.6 855.7,150.9 865.0,142.2 874.2,163.4 883.4,165.4 892.7,161.9 901.9,245.4 911.2,249.3 920.4,242.2 929.7,241.6 938.9,231.5 948.2,240.2 957.4,242.9 966.6,240.8 975.9,246.8 985.1,235.2 994.4,238.6 1003.6,233.1 1012.9,229.6 1022.1,220.4 1031.3,230.5 1040.6,224.1 1049.8,232.4 1059.1,235.2 1068.3,227.0 1077.6,236.2 1086.8,223.9 1096.1,229.0 1105.3,232.5 1114.5,223.2 1123.8,226.4 1133.0,217.5 1142.3,229.9 1151.5,220.1 1160.8,218.3 1170.0,226.1" fill="none" stroke="#0f172a" stroke-width="2.5"/>
  <circle cx="828.0" cy="129.3" r="4.5" fill="#ef4444" stroke="#7f1d1d" stroke-width="1"/><circle cx="837.2" cy="146.4" r="4.5" fill="#ef4444" stroke="#7f1d1d" stroke-width="1"/><circle cx="846.5" cy="153.6" r="4.5" fill="#ef4444" stroke="#7f1d1d" stroke-width="1"/><circle cx="855.7" cy="150.9" r="4.5" fill="#ef4444" stroke="#7f1d1d" stroke-width="1"/><circle cx="865.0" cy="142.2" r="4.5" fill="#ef4444" stroke="#7f1d1d" stroke-width="1"/><circle cx="874.2" cy="163.4" r="4.5" fill="#ef4444" stroke="#7f1d1d" stroke-width="1"/><circle cx="883.4" cy="165.4" r="4.5" fill="#ef4444" stroke="#7f1d1d" stroke-width="1"/><circle cx="892.7" cy="161.9" r="4.5" fill="#ef4444" stroke="#7f1d1d" stroke-width="1"/>
  <circle cx="828.0" cy="129.3" r="6" fill="none" stroke="#111827" stroke-width="2"/><circle cx="837.2" cy="146.4" r="6" fill="none" stroke="#111827" stroke-width="2"/><circle cx="846.5" cy="153.6" r="6" fill="none" stroke="#111827" stroke-width="2"/><circle cx="855.7" cy="150.9" r="6" fill="none" stroke="#111827" stroke-width="2"/><circle cx="865.0" cy="142.2" r="6" fill="none" stroke="#111827" stroke-width="2"/><circle cx="874.2" cy="163.4" r="6" fill="none" stroke="#111827" stroke-width="2"/><circle cx="883.4" cy="165.4" r="6" fill="none" stroke="#111827" stroke-width="2"/><circle cx="892.7" cy="161.9" r="6" fill="none" stroke="#111827" stroke-width="2"/>
  <text x="40" y="448" font-family="Segoe UI, Arial, sans-serif" font-size="16" font-weight="700" fill="#0f172a">Raw score vs threshold</text>
  <rect x="70" y="430" width="1100" height="220" fill="#ffffff" stroke="#dbe4f0"/>
  <line x1="70" y1="650" x2="1170" y2="650" stroke="#94a3b8"/>
  <line x1="70" y1="430" x2="70" y2="650" stroke="#94a3b8"/>
  <line x1="70" y1="579.6" x2="1170" y2="579.6" stroke="#ef4444" stroke-width="2" stroke-dasharray="7 5"/>
  <polyline points="70.0,631.7 79.2,624.6 88.5,616.6 97.7,625.9 107.0,621.0 116.2,580.4 125.5,608.1 134.7,624.5 143.9,610.9 153.2,583.9 162.4,620.6 171.7,617.0 180.9,618.6 190.2,616.8 199.4,624.8 208.7,622.5 217.9,621.0 227.1,623.8 236.4,620.7 245.6,619.9 254.9,612.8 264.1,591.0 273.4,618.7 282.6,626.5 291.8,602.2 301.1,610.8 310.3,624.0 319.6,612.4 328.8,604.7 338.1,595.9 347.3,622.4 356.6,607.7 365.8,614.0 375.0,621.6 384.3,602.6 393.5,618.3 402.8,617.9 412.0,606.6 421.3,621.6 430.5,606.6 439.7,613.4 449.0,607.1 458.2,625.3 467.5,617.4 476.7,612.1 486.0,613.6 495.2,623.3 504.5,617.8 513.7,623.8 522.9,624.3 532.2,615.2 541.4,625.6 550.7,622.1 559.9,606.9 569.2,624.2 578.4,625.8 587.6,620.8 596.9,616.1 606.1,626.1 615.4,614.4 624.6,624.4 633.9,619.5 643.1,624.1 652.4,621.1 661.6,617.0 670.8,607.9 680.1,623.6 689.3,618.6 698.6,623.0 707.8,594.5 717.1,616.7 726.3,622.4 735.5,621.9 744.8,612.2 754.0,622.4 763.3,623.4 772.5,620.4 781.8,620.5 791.0,619.6 800.3,624.4 809.5,623.3 818.7,607.3 828.0,454.1 837.2,495.3 846.5,515.7 855.7,523.4 865.0,520.6 874.2,562.6 883.4,573.6 892.7,567.3 901.9,587.2 911.2,597.3 920.4,611.4 929.7,618.7 938.9,624.5 948.2,620.4 957.4,620.7 966.6,622.4 975.9,620.7 985.1,624.8 994.4,625.4 1003.6,626.4 1012.9,626.7 1022.1,627.9 1031.3,628.4 1040.6,629.5 1049.8,629.3 1059.1,627.9 1068.3,630.9 1077.6,627.0 1086.8,628.0 1096.1,630.5 1105.3,627.4 1114.5,624.0 1123.8,628.6 1133.0,615.0 1142.3,627.8 1151.5,618.4 1160.8,616.2 1170.0,628.0" fill="none" stroke="#7c3aed" stroke-width="2.5"/>
  <text x="82" y="571.6" font-family="Segoe UI, Arial, sans-serif" font-size="13" fill="#b91c1c">threshold=4.50</text>
  <g transform="translate(40, 690)">
    <circle cx="0" cy="0" r="5" fill="#ef4444" stroke="#7f1d1d" stroke-width="1"/>
    <text x="14" y="5" font-family="Segoe UI, Arial, sans-serif" font-size="14" fill="#334155">Detector anomaly</text>
    <circle cx="180" cy="0" r="6" fill="none" stroke="#111827" stroke-width="2"/>
    <text x="196" y="5" font-family="Segoe UI, Arial, sans-serif" font-size="14" fill="#334155">Labeled anomaly</text>
  </g>
</svg>
