<svg xmlns="http://www.w3.org/2000/svg" width="1200" height="760" viewBox="0 0 1200 760">
  <rect width="1200" height="760" fill="#fbfcfe" rx="24"/>
  <text x="40" y="42" font-family="Segoe UI, Arial, sans-serif" font-size="28" font-weight="700" fill="#0f172a">seasonal_hourly_spike - Tuned detector</text>
  <text x="40" y="68" font-family="Segoe UI, Arial, sans-serif" font-size="15" fill="#475569">best benchmark config | precision=1.0 | F1=1.0</text>
  <text x="40" y="108" font-family="Segoe UI, Arial, sans-serif" font-size="16" font-weight="700" fill="#0f172a">Signal and expected band</text>
  <rect x="70" y="90" width="1100" height="270" fill="#ffffff" stroke="#dbe4f0"/>
  <line x1="70" y1="360" x2="1170" y2="360" stroke="#94a3b8"/>
  <line x1="70" y1="90" x2="70" y2="360" stroke="#94a3b8"/>
  <polygon points="484.7,196.9 490.4,192.3 496.2,165.4 501.9,152.7 507.7,155.6 513.5,164.1 519.2,159.8 525.0,155.8 530.7,166.1 536.5,178.8 542.3,188.8 548.0,197.6 553.8,200.5 559.5,192.1 565.3,210.3 571.0,207.6 576.8,240.1 582.6,220.2 588.3,238.6 594.1,219.8 599.8,233.9 605.6,229.3 611.4,229.4 617.1,207.6 622.9,196.9 628.6,175.2 634.4,162.8 640.2,160.0 645.9,158.9 651.7,153.6 657.4,151.2 663.2,161.4 669.0,170.5 674.7,182.1 680.5,195.0 686.2,191.8 692.0,192.9 697.7,198.9 703.5,216.7 709.3,211.9 715.0,216.8 720.8,219.5 726.5,230.2 732.3,237.9 738.1,241.4 743.8,238.6 749.6,226.1 755.3,212.9 761.1,200.4 766.9,170.0 772.6,165.2 778.4,160.8 784.1,156.5 789.9,156.1 795.7,166.3 801.4,171.0 807.2,167.0 812.9,177.9 818.7,187.4 824.5,198.7 830.2,198.0 836.0,216.3 841.7,202.1 847.5,197.8 853.2,208.6 859.0,229.0 864.8,228.8 870.5,228.8 876.3,237.6 882.0,231.8 887.8,228.8 893.6,200.2 899.3,183.7 905.1,178.7 910.8,171.2 916.6,147.0 922.4,149.2 928.1,159.9 933.9,158.6 939.6,169.5 945.4,163.7 951.2,181.8 956.9,191.1 962.7,184.8 968.4,188.9 974.2,206.3 979.9,213.8 985.7,206.0 991.5,204.3 997.2,225.6 1003.0,246.1 1008.7,237.7 1014.5,236.5 1020.3,231.4 1026.0,229.9 1031.8,213.5 1037.5,201.2 1043.3,178.8 1049.1,161.9 1054.8,162.0 1060.6,162.7 1066.3,154.9 1072.1,148.6 1077.9,165.9 1083.6,168.2 1089.4,184.2 1095.1,185.0 1100.9,186.8 1106.6,165.7 1112.4,120.9 1118.2,163.4 1123.9,207.7 1129.7,213.9 1135.4,222.3 1141.2,242.8 1147.0,232.4 1152.7,240.4 1158.5,226.8 1164.2,229.1 1170.0,216.2 1170.0,232.9 1164.2,236.3 1158.5,255.1 1152.7,251.2 1147.0,260.7 1141.2,263.1 1135.4,275.9 1129.7,284.2 1123.9,280.0 1118.2,302.8 1112.4,337.5 1106.6,256.2 1100.9,228.7 1095.1,215.3 1089.4,197.1 1083.6,206.8 1077.9,194.6 1072.1,206.3 1066.3,207.0 1060.6,204.5 1054.8,214.1 1049.1,226.7 1043.3,223.4 1037.5,228.7 1031.8,237.0 1026.0,237.6 1020.3,244.7 1014.5,252.6 1008.7,258.2 1003.0,261.5 997.2,277.9 991.5,288.8 985.7,272.9 979.9,248.3 974.2,248.4 968.4,231.0 962.7,230.2 956.9,208.0 951.2,198.7 945.4,208.2 939.6,190.9 933.9,200.6 928.1,206.0 922.4,221.2 916.6,225.8 910.8,224.9 905.1,222.2 899.3,236.5 893.6,243.0 887.8,240.5 882.0,250.1 876.3,256.3 870.5,267.1 864.8,273.4 859.0,273.6 853.2,294.2 847.5,283.4 841.7,264.0 836.0,234.0 830.2,221.1 824.5,223.2 818.7,215.7 812.9,202.3 807.2,196.0 801.4,192.8 795.7,190.7 789.9,205.9 784.1,210.9 778.4,219.0 772.6,232.2 766.9,237.0 761.1,234.3 755.3,232.8 749.6,243.3 743.8,249.3 738.1,259.5 732.3,261.7 726.5,279.3 720.8,283.1 715.0,279.8 709.3,255.0 703.5,251.5 697.7,253.6 692.0,231.6 686.2,221.7 680.5,203.8 674.7,195.1 669.0,201.3 663.2,199.4 657.4,206.8 651.7,206.4 645.9,215.6 640.2,216.7 634.4,224.5 628.6,236.8 622.9,234.2 617.1,242.6 611.4,238.1 605.6,250.0 599.8,261.7 594.1,280.2 588.3,263.6 582.6,269.3 576.8,264.3 571.0,273.7 565.3,255.7 559.5,258.2 553.8,225.7 548.0,224.7 542.3,219.8 536.5,202.6 530.7,195.2 525.0,200.7 519.2,197.2 513.5,198.4 507.7,213.2 501.9,219.4 496.2,232.1 490.4,237.6 484.7,235.6" fill="#dbeafe" fill-opacity="0.65" stroke="none"/>
  <polyline points="484.7,216.3 490.4,215.0 496.2,198.7 501.9,186.1 507.7,184.4 513.5,181.3 519.2,178.5 525.0,178.3 530.7,180.7 536.5,190.7 542.3,204.3 548.0,211.1 553.8,213.1 559.5,225.2 565.3,233.0 571.0,240.6 576.8,252.2 582.6,244.8 588.3,251.1 594.1,250.0 599.8,247.8 605.6,239.7 611.4,233.8 617.1,225.1 622.9,215.6 628.6,206.0 634.4,193.7 640.2,188.4 645.9,187.3 651.7,180.0 657.4,179.0 663.2,180.4 669.0,185.9 674.7,188.6 680.5,199.4 686.2,206.8 692.0,212.3 697.7,226.2 703.5,234.1 709.3,233.5 715.0,248.3 720.8,251.3 726.5,254.8 732.3,249.8 738.1,250.4 743.8,244.0 749.6,234.7 755.3,222.9 761.1,217.3 766.9,203.5 772.6,198.7 778.4,189.9 784.1,183.7 789.9,181.0 795.7,178.5 801.4,181.9 807.2,181.5 812.9,190.1 818.7,201.5 824.5,211.0 830.2,209.5 836.0,225.2 841.7,233.0 847.5,240.6 853.2,251.4 859.0,251.3 864.8,251.1 870.5,247.9 876.3,247.0 882.0,241.0 887.8,234.6 893.6,221.6 899.3,210.1 905.1,200.4 910.8,198.0 916.6,186.4 922.4,185.2 928.1,182.9 933.9,179.6 939.6,180.2 945.4,186.0 951.2,190.3 956.9,199.6 962.7,207.5 968.4,210.0 974.2,227.3 979.9,231.1 985.7,239.4 991.5,246.5 997.2,251.7 1003.0,253.8 1008.7,247.9 1014.5,244.6 1020.3,238.1 1026.0,233.8 1031.8,225.3 1037.5,215.0 1043.3,201.1 1049.1,194.3 1054.8,188.0 1060.6,183.6 1066.3,181.0 1072.1,177.5 1077.9,180.2 1083.6,187.5 1089.4,190.7 1095.1,200.1 1100.9,207.8 1106.6,211.0 1112.4,229.2 1118.2,233.1 1123.9,243.8 1129.7,249.0 1135.4,249.1 1141.2,253.0 1147.0,246.5 1152.7,245.8 1158.5,241.0 1164.2,232.7 1170.0,224.5" fill="none" stroke="#1d4ed8" stroke-width="2" stroke-dasharray="6 5"/>
  <polyline points="70.0,218.8 75.8,203.7 81.5,196.2 87.3,192.0 93.0,184.6 98.8,180.4 104.6,179.7 110.3,180.9 116.1,182.4 121.8,186.8 127.6,192.2 133.4,206.4 139.1,217.7 144.9,221.8 150.6,233.8 156.4,242.9 162.1,239.5 167.9,246.1 173.7,251.5 179.4,250.2 185.2,244.2 190.9,239.3 196.7,231.1 202.5,224.7 208.2,221.7 214.0,212.6 219.7,194.2 225.5,189.6 231.3,192.5 237.0,180.1 242.8,179.0 248.5,178.7 254.3,184.7 260.1,189.2 265.8,200.6 271.6,211.8 277.3,216.1 283.1,223.9 288.8,234.0 294.6,245.6 300.4,247.4 306.1,251.7 311.9,247.9 317.6,253.4 323.4,249.3 329.2,242.3 334.9,232.3 340.7,220.4 346.4,213.7 352.2,211.2 358.0,201.3 363.7,185.0 369.5,184.2 375.2,182.1 381.0,178.7 386.8,179.2 392.5,178.9 398.3,189.8 404.0,200.3 409.8,209.6 415.5,211.9 421.3,224.4 427.1,232.2 432.8,238.4 438.6,249.2 444.3,243.4 450.1,251.2 455.9,249.8 461.6,246.6 467.4,239.5 473.1,234.0 478.9,225.5 484.7,213.0 490.4,201.5 496.2,195.1 501.9,194.5 507.7,186.1 513.5,176.4 519.2,180.1 525.0,180.8 530.7,185.5 536.5,185.0 542.3,199.2 548.0,207.7 553.8,211.6 559.5,229.8 565.3,234.4 571.0,231.2 576.8,245.7 582.6,247.8 588.3,257.3 594.1,249.6 599.8,249.2 605.6,242.6 611.4,235.6 617.1,224.0 622.9,216.3 628.6,202.7 634.4,205.6 640.2,192.8 645.9,182.3 651.7,180.1 657.4,175.2 663.2,183.0 669.0,181.4 674.7,188.6 680.5,202.1 686.2,212.4 692.0,208.6 697.7,220.4 703.5,232.4 709.3,242.8 715.0,252.0 720.8,250.4 726.5,250.0 732.3,243.6 738.1,246.8 743.8,240.5 749.6,233.2 755.3,220.7 761.1,209.8 766.9,199.6 772.6,197.6 778.4,187.8 784.1,188.3 789.9,183.7 795.7,181.4 801.4,178.4 807.2,192.4 812.9,190.2 818.7,190.8 824.5,202.4 830.2,210.2 836.0,226.3 841.7,231.6 847.5,243.3 853.2,239.9 859.0,250.4 864.8,251.8 870.5,252.6 876.3,244.6 882.0,234.7 887.8,232.8 893.6,224.6 899.3,216.8 905.1,202.0 910.8,197.2 916.6,188.5 922.4,184.5 928.1,180.7 933.9,177.5 939.6,178.8 945.4,189.8 951.2,190.4 956.9,198.3 962.7,204.4 968.4,210.8 974.2,226.6 979.9,235.0 985.7,244.8 991.5,247.6 997.2,244.8 1003.0,252.4 1008.7,244.4 1014.5,245.3 1020.3,240.6 1026.0,232.2 1031.8,225.9 1037.5,213.8 1043.3,205.9 1049.1,204.0 1054.8,193.0 1060.6,182.9 1066.3,182.2 1072.1,187.6 1077.9,177.6 1083.6,179.7 1089.4,194.6 1095.1,112.5 1100.9,120.0 1106.6,220.3 1112.4,220.7 1118.2,233.9 1123.9,241.8 1129.7,243.9 1135.4,245.6 1141.2,247.2 1147.0,251.6 1152.7,244.3 1158.5,245.2 1164.2,229.8 1170.0,227.1" fill="none" stroke="#0f172a" stroke-width="2.5"/>
  <circle cx="1095.1" cy="112.5" r="4.5" fill="#ef4444" stroke="#7f1d1d" stroke-width="1"/><circle cx="1100.9" cy="120.0" r="4.5" fill="#ef4444" stroke="#7f1d1d" stroke-width="1"/>
  <circle cx="1095.1" cy="112.5" r="6" fill="none" stroke="#111827" stroke-width="2"/><circle cx="1100.9" cy="120.0" r="6" fill="none" stroke="#111827" stroke-width="2"/>
  <text x="40" y="448" font-family="Segoe UI, Arial, sans-serif" font-size="16" font-weight="700" fill="#0f172a">Raw score vs threshold</text>
  <rect x="70" y="430" width="1100" height="220" fill="#ffffff" stroke="#dbe4f0"/>
  <line x1="70" y1="650" x2="1170" y2="650" stroke="#94a3b8"/>
  <line x1="70" y1="430" x2="70" y2="650" stroke="#94a3b8"/>
  <line x1="70" y1="601.1" x2="1170" y2="601.1" stroke="#ef4444" stroke-width="2" stroke-dasharray="7 5"/>
  <polyline points="70.0,631.7 75.8,631.7 81.5,631.7 87.3,631.7 93.0,631.7 98.8,631.7 104.6,631.7 110.3,631.7 116.1,631.7 121.8,631.7 127.6,631.7 133.4,631.7 139.1,631.7 144.9,631.7 150.6,631.7 156.4,631.7 162.1,631.7 167.9,631.7 173.7,631.7 179.4,631.7 185.2,631.7 190.9,631.7 196.7,631.7 202.5,631.7 208.2,631.7 214.0,631.7 219.7,631.7 225.5,631.7 231.3,631.7 237.0,631.7 242.8,631.7 248.5,631.7 254.3,631.7 260.1,631.7 265.8,631.7 271.6,631.7 277.3,631.7 283.1,631.7 288.8,631.7 294.6,631.7 300.4,631.7 306.1,631.7 311.9,631.7 317.6,631.7 323.4,631.7 329.2,631.7 334.9,631.7 340.7,631.7 346.4,631.7 352.2,631.7 358.0,631.7 363.7,631.7 369.5,631.7 375.2,631.7 381.0,631.7 386.8,631.7 392.5,631.7 398.3,631.7 404.0,631.7 409.8,631.7 415.5,631.7 421.3,631.7 427.1,631.7 432.8,631.7 438.6,631.7 444.3,631.7 450.1,631.7 455.9,631.7 461.6,631.7 467.4,631.7 473.1,631.7 478.9,631.7 484.7,626.5 490.4,613.6 496.2,628.3 501.9,623.9 507.7,629.8 513.5,622.9 519.2,629.1 525.0,628.2 530.7,621.4 536.5,617.1 542.3,621.7 548.0,623.9 553.8,628.0 559.5,627.4 565.3,629.8 571.0,622.9 576.8,615.2 582.6,627.9 588.3,616.5 594.1,631.2 599.8,628.7 605.6,623.0 611.4,618.8 617.1,629.8 622.9,630.5 628.6,628.4 634.4,619.8 640.2,626.9 645.9,626.3 651.7,631.6 657.4,627.5 663.2,627.5 669.0,622.7 674.7,631.5 680.5,613.0 686.2,620.2 692.0,625.9 697.7,625.2 703.5,628.6 709.3,618.4 715.0,628.1 720.8,630.8 726.5,625.8 732.3,615.8 738.1,619.5 743.8,611.9 749.6,626.2 755.3,624.9 761.1,618.0 766.9,628.1 772.6,630.6 778.4,629.4 784.1,626.5 789.9,628.3 795.7,624.5 801.4,621.9 807.2,608.6 812.9,631.5 818.7,608.4 824.5,610.2 830.2,629.8 836.0,627.8 841.7,630.3 847.5,629.7 853.2,623.5 859.0,630.5 864.8,630.7 870.5,624.2 876.3,623.9 882.0,610.6 887.8,621.9 893.6,627.4 899.3,623.9 905.1,629.4 910.8,630.7 916.6,630.0 922.4,631.1 928.1,628.6 933.9,628.7 939.6,627.7 945.4,626.5 951.2,631.3 956.9,626.9 962.7,627.4 968.4,630.5 974.2,630.6 979.9,624.6 985.7,626.7 991.5,630.9 997.2,623.6 1003.0,626.2 1008.7,621.2 1014.5,628.8 1020.3,620.0 1026.0,619.3 1031.8,629.9 1037.5,629.0 1043.3,625.0 1049.1,622.5 1054.8,625.9 1060.6,630.7 1066.3,630.3 1072.1,620.9 1077.9,626.2 1083.6,619.3 1089.4,613.0 1095.1,454.7 1100.9,503.6 1106.6,625.3 1112.4,629.3 1118.2,631.3 1123.9,630.0 1129.7,627.2 1135.4,627.7 1141.2,614.4 1147.0,620.7 1152.7,622.9 1158.5,622.5 1164.2,606.5 1170.0,622.2" fill="none" stroke="#7c3aed" stroke-width="2.5"/>
  <text x="82" y="593.1" font-family="Segoe UI, Arial, sans-serif" font-size="13" fill="#b91c1c">threshold=2.40</text>
  <g transform="translate(40, 690)">
    <circle cx="0" cy="0" r="5" fill="#ef4444" stroke="#7f1d1d" stroke-width="1"/>
    <text x="14" y="5" font-family="Segoe UI, Arial, sans-serif" font-size="14" fill="#334155">Detector anomaly</text>
    <circle cx="180" cy="0" r="6" fill="none" stroke="#111827" stroke-width="2"/>
    <text x="196" y="5" font-family="Segoe UI, Arial, sans-serif" font-size="14" fill="#334155">Labeled anomaly</text>
  </g>
</svg>
