<svg xmlns="http://www.w3.org/2000/svg" width="1200" height="760" viewBox="0 0 1200 760">
  <rect width="1200" height="760" fill="#fbfcfe" rx="24"/>
  <text x="40" y="42" font-family="Segoe UI, Arial, sans-serif" font-size="28" font-weight="700" fill="#0f172a">seasonal_hourly_spike - Current detector</text>
  <text x="40" y="68" font-family="Segoe UI, Arial, sans-serif" font-size="15" fill="#475569">default config | precision=1.0 | F1=1.0</text>
  <text x="40" y="108" font-family="Segoe UI, Arial, sans-serif" font-size="16" font-weight="700" fill="#0f172a">Signal and expected band</text>
  <rect x="70" y="90" width="1100" height="270" fill="#ffffff" stroke="#dbe4f0"/>
  <line x1="70" y1="360" x2="1170" y2="360" stroke="#94a3b8"/>
  <line x1="70" y1="90" x2="70" y2="360" stroke="#94a3b8"/>
  <polygon points="484.7,186.7 490.4,175.1 496.2,151.4 501.9,135.5 507.7,122.4 513.5,130.7 519.2,137.6 525.0,143.8 530.7,152.9 536.5,164.2 542.3,174.7 548.0,185.0 553.8,193.3 559.5,188.2 565.3,180.0 571.0,165.9 576.8,155.1 582.6,183.8 588.3,176.7 594.1,183.7 599.8,196.3 605.6,200.7 611.4,205.7 617.1,192.0 622.9,192.1 628.6,165.8 634.4,152.0 640.2,136.7 645.9,130.1 651.7,130.9 657.4,129.2 663.2,127.2 669.0,149.5 674.7,171.3 680.5,182.4 686.2,189.4 692.0,192.9 697.7,184.0 703.5,173.5 709.3,175.3 715.0,173.3 720.8,174.5 726.5,171.5 732.3,184.6 738.1,200.3 743.8,205.4 749.6,201.9 755.3,198.1 761.1,190.1 766.9,171.7 772.6,153.4 778.4,135.7 784.1,127.0 789.9,128.2 795.7,145.9 801.4,156.3 807.2,158.1 812.9,169.4 818.7,181.3 824.5,186.8 830.2,191.6 836.0,185.2 841.7,184.7 847.5,193.3 853.2,172.5 859.0,163.3 864.8,175.7 870.5,190.9 876.3,194.2 882.0,199.5 887.8,194.0 893.6,190.4 899.3,177.6 905.1,161.3 910.8,149.1 916.6,145.3 922.4,130.5 928.1,121.3 933.9,128.6 939.6,146.9 945.4,154.9 951.2,165.4 956.9,180.4 962.7,174.5 968.4,180.9 974.2,176.8 979.9,176.5 985.7,187.4 991.5,167.8 997.2,166.0 1003.0,178.3 1008.7,196.6 1014.5,211.6 1020.3,208.4 1026.0,212.7 1031.8,201.5 1037.5,188.7 1043.3,177.2 1049.1,163.0 1054.8,139.4 1060.6,136.8 1066.3,127.4 1072.1,127.4 1077.9,138.3 1083.6,151.5 1089.4,166.6 1095.1,173.2 1100.9,185.1 1106.6,188.4 1112.4,178.1 1118.2,139.5 1123.9,112.5 1129.7,134.7 1135.4,152.8 1141.2,178.2 1147.0,202.7 1152.7,206.6 1158.5,210.6 1164.2,212.9 1170.0,197.0 1170.0,229.8 1164.2,224.3 1158.5,236.9 1152.7,250.8 1147.0,260.5 1141.2,283.2 1135.4,303.4 1129.7,317.2 1123.9,337.5 1118.2,300.0 1112.4,246.5 1106.6,222.1 1100.9,218.7 1095.1,217.5 1089.4,210.9 1083.6,221.6 1077.9,226.6 1072.1,238.5 1066.3,238.5 1060.6,237.2 1054.8,242.9 1049.1,228.3 1043.3,220.1 1037.5,225.3 1031.8,226.8 1026.0,223.7 1020.3,241.8 1014.5,247.9 1008.7,264.7 1003.0,282.2 997.2,290.1 991.5,286.0 985.7,263.3 979.9,262.6 974.2,246.4 968.4,230.7 962.7,233.2 956.9,213.2 951.2,211.1 945.4,213.4 939.6,219.0 933.9,237.5 928.1,242.9 922.4,240.7 916.6,239.1 910.8,242.9 905.1,238.5 899.3,237.1 893.6,238.8 887.8,242.4 882.0,248.0 876.3,262.3 870.5,272.4 864.8,287.1 859.0,290.0 853.2,279.4 847.5,261.0 841.7,255.6 836.0,238.8 830.2,221.1 824.5,217.8 818.7,210.8 812.9,206.8 807.2,212.9 801.4,209.9 795.7,220.1 789.9,237.4 784.1,247.1 778.4,249.9 772.6,231.6 766.9,227.0 761.1,223.9 755.3,230.3 749.6,234.2 743.8,239.2 738.1,254.3 732.3,276.7 726.5,286.8 720.8,276.5 715.0,280.5 709.3,282.6 703.5,265.5 697.7,239.2 692.0,221.8 686.2,218.3 680.5,211.2 674.7,205.3 669.0,218.7 663.2,238.7 657.4,237.0 651.7,236.3 645.9,241.1 640.2,247.7 634.4,238.3 628.6,239.8 622.9,224.3 617.1,234.2 611.4,229.4 605.6,246.0 599.8,258.4 594.1,277.8 588.3,286.1 582.6,273.7 576.8,295.8 571.0,288.5 565.3,260.3 559.5,235.8 553.8,225.8 548.0,219.3 542.3,213.8 536.5,212.8 530.7,219.3 525.0,222.8 519.2,228.3 513.5,235.2 507.7,250.7 501.9,248.7 496.2,233.5 490.4,228.5 484.7,235.6" fill="#dbeafe" fill-opacity="0.65" stroke="none"/>
  <polyline points="484.7,211.2 490.4,201.8 496.2,192.5 501.9,192.1 507.7,186.5 513.5,183.0 519.2,183.0 525.0,183.3 530.7,186.1 536.5,188.5 542.3,194.2 548.0,202.2 553.8,209.6 559.5,212.0 565.3,220.1 571.0,227.2 576.8,225.4 582.6,228.7 588.3,231.4 594.1,230.8 599.8,227.3 605.6,223.3 611.4,217.6 617.1,213.1 622.9,208.2 628.6,202.8 634.4,195.1 640.2,192.2 645.9,185.6 651.7,183.6 657.4,183.1 663.2,183.0 669.0,184.1 674.7,188.3 680.5,196.8 686.2,203.8 692.0,207.3 697.7,211.6 703.5,219.5 709.3,229.0 715.0,226.9 720.8,225.5 726.5,229.1 732.3,230.6 738.1,227.3 743.8,222.3 749.6,218.1 755.3,214.2 761.1,207.0 766.9,199.3 772.6,192.5 778.4,192.8 784.1,187.0 789.9,182.8 795.7,183.0 801.4,183.1 807.2,185.5 812.9,188.1 818.7,196.1 824.5,202.3 830.2,206.3 836.0,212.0 841.7,220.1 847.5,227.1 853.2,225.9 859.0,226.6 864.8,231.4 870.5,231.6 876.3,228.3 882.0,223.7 887.8,218.2 893.6,214.6 899.3,207.3 905.1,199.9 910.8,196.0 916.6,192.2 922.4,185.6 928.1,182.1 933.9,183.1 939.6,183.0 945.4,184.1 951.2,188.3 956.9,196.8 962.7,203.8 968.4,205.8 974.2,211.6 979.9,219.6 985.7,225.4 991.5,226.9 997.2,228.1 1003.0,230.2 1008.7,230.6 1014.5,229.8 1020.3,225.1 1026.0,218.2 1031.8,214.1 1037.5,207.0 1043.3,198.7 1049.1,195.7 1054.8,191.1 1060.6,187.0 1066.3,183.0 1072.1,183.0 1077.9,182.4 1083.6,186.6 1089.4,188.8 1095.1,195.4 1100.9,201.9 1106.6,205.2 1112.4,212.3 1118.2,219.8 1123.9,225.0 1129.7,225.9 1135.4,228.1 1141.2,230.7 1147.0,231.6 1152.7,228.7 1158.5,223.7 1164.2,218.6 1170.0,213.4" fill="none" stroke="#1d4ed8" stroke-width="2" stroke-dasharray="6 5"/>
  <polyline points="70.0,209.5 75.8,199.2 81.5,194.2 87.3,191.4 93.0,186.4 98.8,183.5 104.6,183.1 110.3,183.9 116.1,184.9 121.8,187.9 127.6,191.5 133.4,201.1 139.1,208.7 144.9,211.4 150.6,219.6 156.4,225.7 162.1,223.4 167.9,227.8 173.7,231.5 179.4,230.6 185.2,226.5 190.9,223.3 196.7,217.7 202.5,213.4 208.2,211.4 214.0,205.3 219.7,192.9 225.5,189.7 231.3,191.7 237.0,183.4 242.8,182.6 248.5,182.4 254.3,186.5 260.1,189.5 265.8,197.2 271.6,204.7 277.3,207.6 283.1,212.9 288.8,219.7 294.6,227.5 300.4,228.7 306.1,231.6 311.9,229.0 317.6,232.8 323.4,230.0 329.2,225.3 334.9,218.5 340.7,210.5 346.4,206.0 352.2,204.3 358.0,197.6 363.7,186.6 369.5,186.1 375.2,184.7 381.0,182.4 386.8,182.7 392.5,182.5 398.3,189.9 404.0,196.9 409.8,203.2 415.5,204.8 421.3,213.2 427.1,218.5 432.8,222.6 438.6,229.9 444.3,226.0 450.1,231.3 455.9,230.4 461.6,228.2 467.4,223.4 473.1,219.7 478.9,214.0 484.7,205.5 490.4,197.8 496.2,193.5 501.9,193.1 507.7,187.4 513.5,180.8 519.2,183.3 525.0,183.8 530.7,187.0 536.5,186.7 542.3,196.2 548.0,202.0 553.8,204.6 559.5,216.9 565.3,219.9 571.0,217.8 576.8,227.6 582.6,229.0 588.3,235.4 594.1,230.2 599.8,229.9 605.6,225.5 611.4,220.7 617.1,213.0 622.9,207.7 628.6,198.6 634.4,200.6 640.2,191.9 645.9,184.9 651.7,183.3 657.4,180.1 663.2,185.3 669.0,184.2 674.7,189.1 680.5,198.2 686.2,205.1 692.0,202.6 697.7,210.5 703.5,218.6 709.3,225.6 715.0,231.8 720.8,230.8 726.5,230.5 732.3,226.2 738.1,228.3 743.8,224.1 749.6,219.2 755.3,210.7 761.1,203.3 766.9,196.5 772.6,195.1 778.4,188.5 784.1,188.9 789.9,185.8 795.7,184.2 801.4,182.2 807.2,191.7 812.9,190.1 818.7,190.6 824.5,198.4 830.2,203.7 836.0,214.5 841.7,218.1 847.5,225.9 853.2,223.7 859.0,230.8 864.8,231.7 870.5,232.2 876.3,226.8 882.0,220.2 887.8,218.8 893.6,213.3 899.3,208.1 905.1,198.1 910.8,194.8 916.6,189.0 922.4,186.3 928.1,183.7 933.9,181.6 939.6,182.5 945.4,189.9 951.2,190.3 956.9,195.6 962.7,199.7 968.4,204.0 974.2,214.7 979.9,220.4 985.7,227.0 991.5,228.9 997.2,227.0 1003.0,232.1 1008.7,226.7 1014.5,227.3 1020.3,224.1 1026.0,218.5 1031.8,214.2 1037.5,206.0 1043.3,200.8 1049.1,199.5 1054.8,192.0 1060.6,185.2 1066.3,184.7 1072.1,188.4 1077.9,181.7 1083.6,183.1 1089.4,193.1 1095.1,137.8 1100.9,142.9 1106.6,210.5 1112.4,210.7 1118.2,219.6 1123.9,224.9 1129.7,226.4 1135.4,227.5 1141.2,228.6 1147.0,231.5 1152.7,226.6 1158.5,227.2 1164.2,216.8 1170.0,215.0" fill="none" stroke="#0f172a" stroke-width="2.5"/>
  <circle cx="1095.1" cy="137.8" r="4.5" fill="#ef4444" stroke="#7f1d1d" stroke-width="1"/><circle cx="1100.9" cy="142.9" r="4.5" fill="#ef4444" stroke="#7f1d1d" stroke-width="1"/>
  <circle cx="1095.1" cy="137.8" r="6" fill="none" stroke="#111827" stroke-width="2"/><circle cx="1100.9" cy="142.9" r="6" fill="none" stroke="#111827" stroke-width="2"/>
  <text x="40" y="448" font-family="Segoe UI, Arial, sans-serif" font-size="16" font-weight="700" fill="#0f172a">Raw score vs threshold</text>
  <rect x="70" y="430" width="1100" height="220" fill="#ffffff" stroke="#dbe4f0"/>
  <line x1="70" y1="650" x2="1170" y2="650" stroke="#94a3b8"/>
  <line x1="70" y1="430" x2="70" y2="650" stroke="#94a3b8"/>
  <line x1="70" y1="581.0" x2="1170" y2="581.0" stroke="#ef4444" stroke-width="2" stroke-dasharray="7 5"/>
  <polyline points="70.0,631.7 75.8,631.7 81.5,631.7 87.3,631.7 93.0,631.7 98.8,631.7 104.6,631.7 110.3,631.7 116.1,631.7 121.8,631.7 127.6,631.7 133.4,631.7 139.1,631.7 144.9,631.7 150.6,631.7 156.4,631.7 162.1,631.7 167.9,631.7 173.7,631.7 179.4,631.7 185.2,631.7 190.9,631.7 196.7,631.7 202.5,631.7 208.2,631.7 214.0,631.7 219.7,631.7 225.5,631.7 231.3,631.7 237.0,631.7 242.8,631.7 248.5,631.7 254.3,631.7 260.1,631.7 265.8,631.7 271.6,631.7 277.3,631.7 283.1,631.7 288.8,631.7 294.6,631.7 300.4,631.7 306.1,631.7 311.9,631.7 317.6,631.7 323.4,631.7 329.2,631.7 334.9,631.7 340.7,631.7 346.4,631.7 352.2,631.7 358.0,631.7 363.7,631.7 369.5,631.7 375.2,631.7 381.0,631.7 386.8,631.7 392.5,631.7 398.3,631.7 404.0,631.7 409.8,631.7 415.5,631.7 421.3,631.7 427.1,631.7 432.8,631.7 438.6,631.7 444.3,631.7 450.1,631.7 455.9,631.7 461.6,631.7 467.4,631.7 473.1,631.7 478.9,631.7 484.7,619.9 490.4,624.1 496.2,630.4 501.9,630.8 507.7,631.0 513.5,629.6 519.2,631.2 525.0,631.0 530.7,630.3 536.5,627.9 542.3,626.5 548.0,631.1 553.8,616.1 559.5,621.3 565.3,631.4 571.0,623.9 576.8,630.1 582.6,631.4 588.3,628.0 594.1,631.1 599.8,627.5 605.6,626.9 611.4,618.1 617.1,631.3 622.9,630.1 628.6,625.9 634.4,625.3 640.2,631.4 645.9,631.0 651.7,631.4 657.4,628.8 663.2,629.5 669.0,631.6 674.7,629.3 680.5,626.8 686.2,627.3 692.0,615.1 697.7,629.7 703.5,630.6 709.3,628.5 715.0,627.0 720.8,626.4 726.5,630.5 732.3,626.7 738.1,629.7 743.8,626.5 749.6,628.2 755.3,620.7 761.1,620.7 766.9,626.4 772.6,628.2 778.4,627.9 784.1,630.1 789.9,628.9 795.7,630.0 801.4,629.9 807.2,620.3 812.9,626.1 818.7,612.7 824.5,618.9 830.2,622.5 836.0,627.0 841.7,628.7 847.5,629.9 853.2,629.5 859.0,628.4 864.8,631.4 870.5,630.9 876.3,629.5 882.0,624.1 887.8,630.3 893.6,629.1 899.3,630.4 905.1,629.4 910.8,630.4 916.6,628.3 922.4,631.0 928.1,630.3 933.9,630.3 939.6,631.0 945.4,621.8 951.2,627.2 956.9,627.9 962.7,624.5 968.4,628.1 974.2,627.1 979.9,630.7 985.7,629.5 991.5,630.0 997.2,630.8 1003.0,629.9 1008.7,625.8 1014.5,624.8 1020.3,628.5 1026.0,628.8 1031.8,631.3 1037.5,629.0 1043.3,626.7 1049.1,625.8 1054.8,630.8 1060.6,629.9 1066.3,630.0 1072.1,626.7 1077.9,630.8 1083.6,626.6 1089.4,621.7 1095.1,500.1 1100.9,454.0 1106.6,615.9 1112.4,629.3 1118.2,631.6 1123.9,631.6 1129.7,631.4 1135.4,631.3 1141.2,629.6 1147.0,631.5 1152.7,626.9 1158.5,618.2 1164.2,615.9 1170.0,626.6" fill="none" stroke="#7c3aed" stroke-width="2.5"/>
  <text x="82" y="573.0" font-family="Segoe UI, Arial, sans-serif" font-size="13" fill="#b91c1c">threshold=4.50</text>
  <g transform="translate(40, 690)">
    <circle cx="0" cy="0" r="5" fill="#ef4444" stroke="#7f1d1d" stroke-width="1"/>
    <text x="14" y="5" font-family="Segoe UI, Arial, sans-serif" font-size="14" fill="#334155">Detector anomaly</text>
    <circle cx="180" cy="0" r="6" fill="none" stroke="#111827" stroke-width="2"/>
    <text x="196" y="5" font-family="Segoe UI, Arial, sans-serif" font-size="14" fill="#334155">Labeled anomaly</text>
  </g>
</svg>
