<svg xmlns="http://www.w3.org/2000/svg" width="1200" height="760" viewBox="0 0 1200 760">
  <rect width="1200" height="760" fill="#fffdf8" rx="24"/>
  <text x="40" y="42" font-family="Segoe UI, Arial, sans-serif" font-size="28" font-weight="700" fill="#0f172a">Elastic result view</text>
  <text x="40" y="68" font-family="Segoe UI, Arial, sans-serif" font-size="15" fill="#475569">seasonal_hourly_spike imported from Elastic records export | threshold=1.0</text>
  <text x="40" y="108" font-family="Segoe UI, Arial, sans-serif" font-size="16" font-weight="700" fill="#0f172a">Signal with Elastic anomaly markers</text>
  <rect x="70" y="90" width="1100" height="270" fill="#ffffff" stroke="#dbe4f0"/>
  <line x1="70" y1="360" x2="1170" y2="360" stroke="#94a3b8"/>
  <line x1="70" y1="90" x2="70" y2="360" stroke="#94a3b8"/>
  <polyline points="70.0,277.8 75.8,254.2 81.5,242.5 87.3,236.0 93.0,224.6 98.8,218.0 104.6,216.9 110.3,218.8 116.1,221.1 121.8,228.0 127.6,236.4 133.4,258.5 139.1,276.1 144.9,282.3 150.6,301.1 156.4,315.1 162.1,309.9 167.9,320.1 173.7,328.6 179.4,326.5 185.2,317.1 190.9,309.6 196.7,296.8 202.5,286.8 208.2,282.2 214.0,268.1 219.7,239.5 225.5,232.3 231.3,236.8 237.0,217.6 242.8,215.9 248.5,215.4 254.3,224.8 260.1,231.7 265.8,249.4 271.6,266.8 277.3,273.4 283.1,285.6 288.8,301.3 294.6,319.3 300.4,322.1 306.1,328.8 311.9,322.9 317.6,331.5 323.4,325.0 329.2,314.3 334.9,298.7 340.7,280.2 346.4,269.8 352.2,265.9 358.0,250.5 363.7,225.1 369.5,223.9 375.2,220.7 381.0,215.3 386.8,216.1 392.5,215.7 398.3,232.6 404.0,248.9 409.8,263.4 415.5,266.9 421.3,286.3 427.1,298.5 432.8,308.1 438.6,324.9 444.3,316.0 450.1,328.1 455.9,325.9 461.6,320.9 467.4,309.9 473.1,301.3 478.9,288.1 484.7,268.7 490.4,250.8 496.2,240.9 501.9,240.0 507.7,226.9 513.5,211.8 519.2,217.5 525.0,218.7 530.7,226.0 536.5,225.2 542.3,247.2 548.0,260.5 553.8,266.5 559.5,294.8 565.3,301.9 571.0,297.0 576.8,319.5 582.6,322.8 588.3,337.5 594.1,325.6 599.8,324.9 605.6,314.6 611.4,303.8 617.1,285.8 622.9,273.7 628.6,252.6 634.4,257.2 640.2,237.3 645.9,221.0 651.7,217.5 657.4,210.0 663.2,222.1 669.0,219.5 674.7,230.8 680.5,251.8 686.2,267.7 692.0,261.9 697.7,280.2 703.5,298.8 709.3,315.0 715.0,329.3 720.8,326.9 726.5,326.2 732.3,316.3 738.1,321.3 743.8,311.4 749.6,300.1 755.3,280.6 761.1,263.7 766.9,247.8 772.6,244.8 778.4,229.5 784.1,230.2 789.9,223.2 795.7,219.5 801.4,214.9 807.2,236.7 812.9,233.2 818.7,234.2 824.5,252.2 830.2,264.4 836.0,289.3 841.7,297.6 847.5,315.7 853.2,310.6 859.0,326.8 864.8,328.9 870.5,330.2 876.3,317.8 882.0,302.4 887.8,299.4 893.6,286.7 899.3,274.6 905.1,251.6 910.8,244.1 916.6,230.7 922.4,224.4 928.1,218.4 933.9,213.5 939.6,215.6 945.4,232.6 951.2,233.5 956.9,245.8 962.7,255.2 968.4,265.3 974.2,289.9 979.9,302.9 985.7,318.1 991.5,322.5 997.2,318.2 1003.0,329.9 1008.7,317.5 1014.5,318.9 1020.3,311.5 1026.0,298.6 1031.8,288.8 1037.5,269.9 1043.3,257.7 1049.1,254.7 1054.8,237.6 1060.6,221.9 1066.3,220.8 1072.1,229.2 1077.9,213.7 1083.6,217.0 1089.4,240.1 1095.1,112.5 1100.9,124.2 1106.6,280.1 1112.4,280.7 1118.2,301.1 1123.9,313.5 1129.7,316.7 1135.4,319.4 1141.2,321.8 1147.0,328.7 1152.7,317.3 1158.5,318.7 1164.2,294.7 1170.0,290.6" fill="none" stroke="#334155" stroke-width="2.5"/>
  <line x1="1095.1" y1="265.0" x2="1095.1" y2="215.5" stroke="#86efac" stroke-width="3" stroke-linecap="round"/><line x1="1100.9" y1="266.6" x2="1100.9" y2="241.5" stroke="#86efac" stroke-width="3" stroke-linecap="round"/>
  <rect x="1092.1" y="243.7" width="6" height="6" fill="#2563eb"/><rect x="1097.9" y="254.7" width="6" height="6" fill="#2563eb"/>
  <circle cx="1095.1" cy="112.5" r="5.5" fill="#16a34a" stroke="#14532d" stroke-width="1"/><circle cx="1100.9" cy="124.2" r="5.5" fill="#16a34a" stroke="#14532d" stroke-width="1"/>
  <text x="40" y="448" font-family="Segoe UI, Arial, sans-serif" font-size="16" font-weight="700" fill="#0f172a">Elastic record_score</text>
  <rect x="70" y="430" width="1100" height="220" fill="#ffffff" stroke="#dbe4f0"/>
  <line x1="70" y1="650" x2="1170" y2="650" stroke="#94a3b8"/>
  <line x1="70" y1="430" x2="70" y2="650" stroke="#94a3b8"/>
  <line x1="70" y1="629.2" x2="1170" y2="629.2" stroke="#f59e0b" stroke-width="2" stroke-dasharray="7 5"/>
  <polyline points="1095.1,574.5 1100.9,448.3" fill="none" stroke="#16a34a" stroke-width="2.5"/>
  <circle cx="1095.1" cy="574.5" r="4.5" fill="#16a34a"/><circle cx="1100.9" cy="448.3" r="4.5" fill="#16a34a"/>
  <g transform="translate(40, 690)">
    <circle cx="0" cy="0" r="5" fill="#16a34a" stroke="#14532d" stroke-width="1"/>
    <text x="14" y="5" font-family="Segoe UI, Arial, sans-serif" font-size="14" fill="#334155">Elastic anomaly (score >= threshold)</text>
    <circle cx="290" cy="0" r="5" fill="#f59e0b" stroke="#92400e" stroke-width="1"/>
    <text x="304" y="5" font-family="Segoe UI, Arial, sans-serif" font-size="14" fill="#334155">Elastic record below threshold</text>
    <rect x="570" y="-4" width="8" height="8" fill="#2563eb"/>
    <text x="586" y="5" font-family="Segoe UI, Arial, sans-serif" font-size="14" fill="#334155">Elastic typical</text>
  </g>
</svg>
