<svg xmlns="http://www.w3.org/2000/svg" width="1200" height="760" viewBox="0 0 1200 760">
  <rect width="1200" height="760" fill="#fbfcfe" rx="24"/>
  <text x="40" y="42" font-family="Segoe UI, Arial, sans-serif" font-size="28" font-weight="700" fill="#0f172a">subtle_level_shift - Current detector</text>
  <text x="40" y="68" font-family="Segoe UI, Arial, sans-serif" font-size="15" fill="#475569">default config | precision=1.0 | F1=1.0</text>
  <text x="40" y="108" font-family="Segoe UI, Arial, sans-serif" font-size="16" font-weight="700" fill="#0f172a">Signal and expected band</text>
  <rect x="70" y="90" width="1100" height="270" fill="#ffffff" stroke="#dbe4f0"/>
  <line x1="70" y1="360" x2="1170" y2="360" stroke="#94a3b8"/>
  <line x1="70" y1="90" x2="70" y2="360" stroke="#94a3b8"/>
  <polygon points="162.4,249.3 171.7,248.8 180.9,249.0 190.2,243.2 199.4,240.9 208.7,242.3 217.9,239.8 227.1,242.9 236.4,243.8 245.6,244.3 254.9,244.1 264.1,245.3 273.4,246.1 282.6,245.8 291.8,245.7 301.1,246.5 310.3,246.3 319.6,246.1 328.8,243.5 338.1,242.0 347.3,244.1 356.6,242.2 365.8,241.1 375.0,242.8 384.3,240.3 393.5,240.2 402.8,240.1 412.0,229.5 421.3,228.3 430.5,225.5 439.7,224.6 449.0,220.2 458.2,221.4 467.5,228.4 476.7,226.3 486.0,229.2 495.2,233.6 504.5,232.1 513.7,232.1 522.9,232.3 532.2,232.3 541.4,232.1 550.7,233.9 559.9,233.9 569.2,232.1 578.4,226.8 587.6,230.9 596.9,229.5 606.1,231.2 615.4,231.2 624.6,229.5 633.9,229.5 643.1,225.7 652.4,220.3 661.6,220.3 670.8,219.1 680.1,220.7 689.3,215.6 698.6,215.6 707.8,220.1 717.1,217.8 726.3,217.8 735.5,217.8 744.8,219.8 754.0,216.1 763.3,220.1 772.5,218.3 781.8,220.1 791.0,224.4 800.3,224.4 809.5,206.7 818.7,187.9 828.0,181.3 837.2,175.7 846.5,163.9 855.7,153.9 865.0,150.3 874.2,144.8 883.4,112.5 892.7,119.0 901.9,124.2 911.2,126.3 920.4,128.7 929.7,129.1 938.9,132.5 948.2,131.9 957.4,132.3 966.6,125.3 975.9,119.0 985.1,112.5 994.4,144.6 1003.6,149.3 1012.9,156.6 1022.1,160.3 1031.3,166.4 1040.6,178.6 1049.8,187.6 1059.1,207.1 1068.3,225.7 1077.6,226.8 1086.8,226.5 1096.1,223.0 1105.3,221.9 1114.5,224.6 1123.8,224.9 1133.0,223.7 1142.3,222.9 1151.5,222.7 1160.8,222.5 1170.0,223.0 1170.0,248.6 1160.8,249.1 1151.5,249.0 1142.3,248.7 1133.0,248.3 1123.8,247.1 1114.5,247.8 1105.3,252.0 1096.1,253.2 1086.8,251.4 1077.6,251.5 1068.3,254.2 1059.1,272.8 1049.8,290.7 1040.6,299.7 1031.3,311.9 1022.1,318.0 1012.9,321.7 1003.6,324.7 994.4,323.3 985.1,307.4 975.9,298.8 966.6,289.8 957.4,279.5 948.2,279.9 938.9,279.2 929.7,282.7 920.4,283.1 911.2,285.5 901.9,290.9 892.7,298.8 883.4,307.4 874.2,337.5 865.0,332.0 855.7,328.8 846.5,321.2 837.2,309.4 828.0,304.6 818.7,299.5 809.5,282.8 800.3,265.1 791.0,265.1 781.8,270.0 772.5,271.2 763.3,270.0 754.0,274.0 744.8,271.5 735.5,274.8 726.3,274.8 717.1,274.8 707.8,275.6 698.6,280.1 689.3,280.1 680.1,280.9 670.8,283.5 661.6,280.2 652.4,280.2 643.1,276.8 633.9,275.3 624.6,275.3 615.4,273.8 606.1,273.8 596.9,275.3 587.6,274.0 578.4,275.8 569.2,272.8 559.9,270.9 550.7,270.9 541.4,272.8 532.2,272.6 522.9,272.6 513.7,273.6 504.5,273.6 495.2,277.5 486.0,283.5 476.7,279.4 467.5,284.2 458.2,292.2 449.0,294.0 439.7,292.5 430.5,291.6 421.3,289.0 412.0,288.9 402.8,279.3 393.5,279.4 384.3,279.6 375.0,280.8 365.8,278.8 356.6,281.4 347.3,279.7 338.1,281.6 328.8,280.1 319.6,277.5 310.3,277.5 301.1,277.1 291.8,275.1 282.6,276.4 273.4,277.5 264.1,277.0 254.9,276.7 245.6,278.6 236.4,281.3 227.1,280.0 217.9,281.0 208.7,280.6 199.4,279.8 190.2,275.0 180.9,271.8 171.7,269.4 162.4,271.5" fill="#dbeafe" fill-opacity="0.65" stroke="none"/>
  <polyline points="162.4,260.4 171.7,259.1 180.9,260.4 190.2,259.1 199.4,260.4 208.7,261.5 217.9,260.4 227.1,261.5 236.4,262.5 245.6,261.5 254.9,260.4 264.1,261.2 273.4,261.8 282.6,261.1 291.8,260.4 301.1,261.8 310.3,261.9 319.6,261.8 328.8,261.8 338.1,261.8 347.3,261.9 356.6,261.8 365.8,259.9 375.0,261.8 384.3,259.9 393.5,259.8 402.8,259.7 412.0,259.2 421.3,258.7 430.5,258.5 439.7,258.5 449.0,257.1 458.2,256.8 467.5,256.3 476.7,252.8 486.0,256.3 495.2,255.6 504.5,252.8 513.7,252.8 522.9,252.5 532.2,252.5 541.4,252.4 550.7,252.4 559.9,252.4 569.2,252.4 578.4,251.3 587.6,252.4 596.9,252.4 606.1,252.5 615.4,252.5 624.6,252.4 633.9,252.4 643.1,251.3 652.4,250.2 661.6,250.2 670.8,251.3 680.1,250.8 689.3,247.9 698.6,247.9 707.8,247.9 717.1,246.3 726.3,246.3 735.5,246.3 744.8,245.7 754.0,245.1 763.3,245.1 772.5,244.8 781.8,245.1 791.0,244.8 800.3,244.8 809.5,244.8 818.7,243.7 828.0,243.0 837.2,242.5 846.5,242.5 855.7,241.4 865.0,241.1 874.2,241.1 883.4,209.9 892.7,208.9 901.9,207.6 911.2,205.9 920.4,205.9 929.7,205.9 938.9,205.9 948.2,205.9 957.4,205.9 966.6,207.6 975.9,208.9 985.1,209.9 994.4,234.0 1003.6,237.0 1012.9,239.2 1022.1,239.2 1031.3,239.2 1040.6,239.2 1049.8,239.2 1059.1,239.9 1068.3,239.9 1077.6,239.2 1086.8,239.0 1096.1,238.1 1105.3,237.0 1114.5,236.2 1123.8,236.0 1133.0,236.0 1142.3,235.8 1151.5,235.8 1160.8,235.8 1170.0,235.8" fill="none" stroke="#1d4ed8" stroke-width="2" stroke-dasharray="6 5"/>
  <polyline points="70.0,257.9 79.2,260.4 88.5,262.5 97.7,256.4 107.0,262.6 116.2,250.9 125.5,270.1 134.7,264.8 143.9,255.4 153.2,263.8 162.4,263.5 171.7,259.8 180.9,259.7 190.2,261.9 199.4,261.8 208.7,256.8 217.9,259.9 227.1,264.9 236.4,265.4 245.6,258.5 254.9,249.6 264.1,270.7 273.4,265.4 282.6,249.0 291.8,259.2 301.1,265.1 310.3,252.8 319.6,256.8 328.8,258.7 338.1,250.0 347.3,257.1 356.6,251.0 365.8,251.1 375.0,242.9 384.3,243.4 393.5,256.3 402.8,252.5 412.0,259.2 421.3,255.6 430.5,248.0 439.7,250.2 449.0,252.4 458.2,258.1 467.5,251.3 476.7,256.0 486.0,257.5 495.2,242.7 504.5,244.9 513.7,256.6 522.9,247.9 532.2,254.1 541.4,246.3 550.7,237.3 559.9,256.6 569.2,244.4 578.4,237.8 587.6,245.1 596.9,258.2 606.1,250.8 615.4,236.6 624.6,253.2 633.9,250.6 643.1,240.9 652.4,245.7 661.6,244.8 670.8,242.5 680.1,243.0 689.3,249.9 698.6,243.7 707.8,250.4 717.1,241.1 726.3,241.4 735.5,205.9 744.8,195.5 754.0,207.6 763.3,209.9 772.5,193.3 781.8,191.2 791.0,208.9 800.3,203.3 809.5,191.6 818.7,201.8 828.0,191.7 837.2,203.8 846.5,243.4 855.7,242.7 865.0,241.3 874.2,243.0 883.4,240.3 892.7,242.8 901.9,234.0 911.2,241.0 920.4,239.2 929.7,237.0 938.9,239.9 948.2,230.3 957.4,239.0 966.6,236.2 975.9,238.1 985.1,241.3 994.4,235.8 1003.6,234.1 1012.9,234.6 1022.1,233.6 1031.3,235.8 1040.6,236.0 1049.8,232.1 1059.1,232.1 1068.3,226.3 1077.6,240.3 1086.8,238.2 1096.1,235.9 1105.3,230.7 1114.5,236.2 1123.8,241.1 1133.0,234.8 1142.3,237.0 1151.5,231.3 1160.8,230.9 1170.0,234.4" fill="none" stroke="#0f172a" stroke-width="2.5"/>
  <circle cx="735.5" cy="205.9" r="4.5" fill="#ef4444" stroke="#7f1d1d" stroke-width="1"/><circle cx="744.8" cy="195.5" r="4.5" fill="#ef4444" stroke="#7f1d1d" stroke-width="1"/><circle cx="754.0" cy="207.6" r="4.5" fill="#ef4444" stroke="#7f1d1d" stroke-width="1"/><circle cx="763.3" cy="209.9" r="4.5" fill="#ef4444" stroke="#7f1d1d" stroke-width="1"/><circle cx="772.5" cy="193.3" r="4.5" fill="#ef4444" stroke="#7f1d1d" stroke-width="1"/><circle cx="781.8" cy="191.2" r="4.5" fill="#ef4444" stroke="#7f1d1d" stroke-width="1"/><circle cx="791.0" cy="208.9" r="4.5" fill="#ef4444" stroke="#7f1d1d" stroke-width="1"/><circle cx="800.3" cy="203.3" r="4.5" fill="#ef4444" stroke="#7f1d1d" stroke-width="1"/><circle cx="809.5" cy="191.6" r="4.5" fill="#ef4444" stroke="#7f1d1d" stroke-width="1"/><circle cx="818.7" cy="201.8" r="4.5" fill="#ef4444" stroke="#7f1d1d" stroke-width="1"/><circle cx="828.0" cy="191.7" r="4.5" fill="#ef4444" stroke="#7f1d1d" stroke-width="1"/><circle cx="837.2" cy="203.8" r="4.5" fill="#ef4444" stroke="#7f1d1d" stroke-width="1"/>
  <circle cx="735.5" cy="205.9" r="6" fill="none" stroke="#111827" stroke-width="2"/><circle cx="744.8" cy="195.5" r="6" fill="none" stroke="#111827" stroke-width="2"/><circle cx="754.0" cy="207.6" r="6" fill="none" stroke="#111827" stroke-width="2"/><circle cx="763.3" cy="209.9" r="6" fill="none" stroke="#111827" stroke-width="2"/><circle cx="772.5" cy="193.3" r="6" fill="none" stroke="#111827" stroke-width="2"/><circle cx="781.8" cy="191.2" r="6" fill="none" stroke="#111827" stroke-width="2"/><circle cx="791.0" cy="208.9" r="6" fill="none" stroke="#111827" stroke-width="2"/><circle cx="800.3" cy="203.3" r="6" fill="none" stroke="#111827" stroke-width="2"/><circle cx="809.5" cy="191.6" r="6" fill="none" stroke="#111827" stroke-width="2"/><circle cx="818.7" cy="201.8" r="6" fill="none" stroke="#111827" stroke-width="2"/><circle cx="828.0" cy="191.7" r="6" fill="none" stroke="#111827" stroke-width="2"/><circle cx="837.2" cy="203.8" r="6" fill="none" stroke="#111827" stroke-width="2"/>
  <text x="40" y="448" font-family="Segoe UI, Arial, sans-serif" font-size="16" font-weight="700" fill="#0f172a">Raw score vs threshold</text>
  <rect x="70" y="430" width="1100" height="220" fill="#ffffff" stroke="#dbe4f0"/>
  <line x1="70" y1="650" x2="1170" y2="650" stroke="#94a3b8"/>
  <line x1="70" y1="430" x2="70" y2="650" stroke="#94a3b8"/>
  <line x1="70" y1="576.2" x2="1170" y2="576.2" stroke="#ef4444" stroke-width="2" stroke-dasharray="7 5"/>
  <polyline points="70.0,631.7 79.2,631.7 88.5,631.7 97.7,631.7 107.0,631.7 116.2,631.7 125.5,631.7 134.7,631.7 143.9,631.7 153.2,631.7 162.4,613.9 171.7,600.7 180.9,624.2 190.2,619.2 199.4,627.5 208.7,620.2 217.9,630.4 227.1,622.9 236.4,624.5 245.6,623.7 254.9,600.4 264.1,603.2 273.4,620.9 282.6,594.4 291.8,623.2 301.1,621.5 310.3,604.2 319.6,615.3 328.8,623.0 338.1,603.6 347.3,614.7 356.6,605.6 365.8,609.6 375.0,584.7 384.3,592.0 393.5,601.3 402.8,598.7 412.0,617.8 421.3,619.1 430.5,616.6 439.7,619.9 449.0,624.6 458.2,627.3 467.5,623.1 476.7,626.1 486.0,626.9 495.2,604.1 504.5,613.6 513.7,623.2 522.9,620.9 532.2,627.9 541.4,617.6 550.7,593.2 559.9,614.1 569.2,613.1 578.4,605.8 587.6,612.6 596.9,613.8 606.1,610.1 615.4,596.5 624.6,619.7 633.9,619.5 643.1,612.4 652.4,624.5 661.6,623.1 670.8,618.9 680.1,618.9 689.3,627.1 698.6,625.5 707.8,624.5 717.1,623.0 726.3,623.5 735.5,564.7 744.8,539.9 754.0,570.5 763.3,565.3 772.5,539.1 781.8,516.6 791.0,478.5 800.3,456.3 809.5,525.8 818.7,566.1 828.0,566.3 837.2,571.9 846.5,590.1 855.7,599.3 865.0,603.6 874.2,619.9 883.4,610.1 892.7,604.1 901.9,597.8 911.2,591.4 920.4,591.1 929.7,591.5 938.9,590.2 948.2,591.3 957.4,591.7 966.6,601.4 975.9,604.7 985.1,611.7 994.4,629.4 1003.6,630.1 1012.9,629.1 1022.1,628.4 1031.3,629.1 1040.6,628.6 1049.8,625.2 1059.1,620.4 1068.3,586.7 1077.6,603.9 1086.8,610.9 1096.1,623.3 1105.3,611.8 1114.5,618.7 1123.8,609.9 1133.0,627.0 1142.3,627.3 1151.5,615.6 1160.8,614.4 1170.0,625.8" fill="none" stroke="#7c3aed" stroke-width="2.5"/>
  <text x="82" y="568.2" font-family="Segoe UI, Arial, sans-serif" font-size="13" fill="#b91c1c">threshold=3.50</text>
  <g transform="translate(40, 690)">
    <circle cx="0" cy="0" r="5" fill="#ef4444" stroke="#7f1d1d" stroke-width="1"/>
    <text x="14" y="5" font-family="Segoe UI, Arial, sans-serif" font-size="14" fill="#334155">Detector anomaly</text>
    <circle cx="180" cy="0" r="6" fill="none" stroke="#111827" stroke-width="2"/>
    <text x="196" y="5" font-family="Segoe UI, Arial, sans-serif" font-size="14" fill="#334155">Labeled anomaly</text>
  </g>
</svg>
