<svg xmlns="http://www.w3.org/2000/svg" width="1200" height="760" viewBox="0 0 1200 760">
  <rect width="1200" height="760" fill="#fbfcfe" rx="24"/>
  <text x="40" y="42" font-family="Segoe UI, Arial, sans-serif" font-size="28" font-weight="700" fill="#0f172a">subtle_level_shift - Tuned detector</text>
  <text x="40" y="68" font-family="Segoe UI, Arial, sans-serif" font-size="15" fill="#475569">best benchmark config | precision=1.0 | F1=1.0</text>
  <text x="40" y="108" font-family="Segoe UI, Arial, sans-serif" font-size="16" font-weight="700" fill="#0f172a">Signal and expected band</text>
  <rect x="70" y="90" width="1100" height="270" fill="#ffffff" stroke="#dbe4f0"/>
  <line x1="70" y1="360" x2="1170" y2="360" stroke="#94a3b8"/>
  <line x1="70" y1="90" x2="70" y2="360" stroke="#94a3b8"/>
  <polygon points="162.4,254.4 171.7,253.7 180.9,254.1 190.2,248.3 199.4,246.3 208.7,247.8 217.9,245.1 227.1,248.3 236.4,249.4 245.6,249.7 254.9,249.3 264.1,250.7 273.4,251.5 282.6,251.1 291.8,250.9 301.1,252.0 310.3,251.8 319.6,251.5 328.8,249.0 338.1,247.5 347.3,249.6 356.6,247.7 365.8,246.3 375.0,248.3 384.3,245.5 393.5,245.5 402.8,245.3 412.0,234.9 421.3,233.7 430.5,230.9 439.7,230.0 449.0,225.5 458.2,226.6 467.5,233.4 476.7,230.7 486.0,234.1 495.2,238.3 504.5,236.4 513.7,236.4 522.9,236.6 532.2,236.6 541.4,236.3 550.7,238.1 559.9,238.1 569.2,236.3 578.4,230.9 587.6,235.1 596.9,233.8 606.1,235.4 615.4,235.4 624.6,233.8 633.9,233.8 643.1,229.9 652.4,224.4 661.6,224.4 670.8,223.4 680.1,224.9 689.3,219.4 698.6,219.4 707.8,223.9 717.1,221.4 726.3,221.4 735.5,221.4 744.8,223.2 754.0,219.5 763.3,223.4 772.5,221.6 781.8,223.4 791.0,227.6 800.3,227.6 809.5,210.3 818.7,191.7 828.0,185.1 837.2,179.6 846.5,168.0 855.7,158.1 865.0,154.5 874.2,149.1 883.4,112.5 892.7,118.7 901.9,123.5 911.2,125.3 920.4,127.7 929.7,128.0 938.9,131.4 948.2,130.8 957.4,131.2 966.6,124.7 975.9,118.7 985.1,112.5 994.4,147.8 1003.6,152.9 1012.9,160.4 1022.1,164.0 1031.3,170.0 1040.6,181.9 1049.8,190.7 1059.1,209.8 1068.3,228.0 1077.6,229.0 1086.8,228.7 1096.1,225.1 1105.3,223.9 1114.5,226.4 1123.8,226.6 1133.0,225.4 1142.3,224.6 1151.5,224.4 1160.8,224.3 1170.0,224.7 1170.0,249.8 1160.8,250.2 1151.5,250.1 1142.3,249.9 1133.0,249.5 1123.8,248.3 1114.5,249.0 1105.3,253.3 1096.1,254.7 1086.8,253.0 1077.6,253.1 1068.3,255.9 1059.1,274.1 1049.8,291.5 1040.6,300.2 1031.3,312.1 1022.1,318.1 1012.9,321.8 1003.6,324.3 994.4,322.5 985.1,303.0 975.9,294.4 966.6,285.4 957.4,275.1 948.2,275.4 938.9,274.8 929.7,278.2 920.4,278.6 911.2,280.9 901.9,286.5 892.7,294.4 883.4,303.0 874.2,337.5 865.0,332.1 855.7,329.1 846.5,321.8 837.2,310.2 828.0,305.7 818.7,300.8 809.5,284.6 800.3,267.3 791.0,267.3 781.8,272.2 772.5,273.3 763.3,272.2 754.0,276.1 744.8,273.7 735.5,277.1 726.3,277.1 717.1,277.1 707.8,278.1 698.6,282.5 689.3,282.5 680.1,283.8 670.8,286.4 661.6,282.9 652.4,282.9 643.1,279.9 633.9,278.6 624.6,278.6 615.4,277.1 606.1,277.1 596.9,278.6 587.6,277.2 578.4,278.8 569.2,276.1 559.9,274.3 550.7,274.3 541.4,276.1 532.2,275.9 522.9,275.9 513.7,276.9 504.5,276.9 495.2,281.2 486.0,287.2 476.7,282.6 467.5,287.9 458.2,295.8 449.0,297.6 439.7,296.3 430.5,295.4 421.3,293.0 412.0,292.9 402.8,283.6 393.5,283.8 384.3,284.0 375.0,285.4 365.8,283.2 356.6,286.0 347.3,284.4 338.1,286.2 328.8,284.8 319.6,282.3 310.3,282.2 301.1,281.8 291.8,279.6 282.6,281.0 273.4,282.2 264.1,281.6 254.9,281.2 245.6,283.3 236.4,286.0 227.1,284.7 217.9,285.4 208.7,285.2 199.4,284.3 190.2,279.3 180.9,276.4 171.7,273.9 162.4,276.1" fill="#dbeafe" fill-opacity="0.65" stroke="none"/>
  <polyline points="162.4,265.3 171.7,263.8 180.9,265.3 190.2,263.8 199.4,265.3 208.7,266.5 217.9,265.3 227.1,266.5 236.4,267.7 245.6,266.5 254.9,265.3 264.1,266.1 273.4,266.9 282.6,266.1 291.8,265.3 301.1,266.9 310.3,267.0 319.6,266.9 328.8,266.9 338.1,266.9 347.3,267.0 356.6,266.9 365.8,264.8 375.0,266.9 384.3,264.8 393.5,264.6 402.8,264.5 412.0,263.9 421.3,263.3 430.5,263.2 439.7,263.2 449.0,261.5 458.2,261.2 467.5,260.7 476.7,256.7 486.0,260.7 495.2,259.8 504.5,256.7 513.7,256.7 522.9,256.2 532.2,256.2 541.4,256.2 550.7,256.2 559.9,256.2 569.2,256.2 578.4,254.9 587.6,256.2 596.9,256.2 606.1,256.2 615.4,256.2 624.6,256.2 633.9,256.2 643.1,254.9 652.4,253.7 661.6,253.7 670.8,254.9 680.1,254.3 689.3,251.0 698.6,251.0 707.8,251.0 717.1,249.3 726.3,249.3 735.5,249.3 744.8,248.5 754.0,247.8 763.3,247.8 772.5,247.5 781.8,247.8 791.0,247.5 800.3,247.5 809.5,247.5 818.7,246.3 828.0,245.4 837.2,244.9 846.5,244.9 855.7,243.6 865.0,243.3 874.2,243.3 883.4,207.7 892.7,206.6 901.9,205.0 911.2,203.1 920.4,203.1 929.7,203.1 938.9,203.1 948.2,203.1 957.4,203.1 966.6,205.0 975.9,206.6 985.1,207.7 994.4,235.1 1003.6,238.6 1012.9,241.1 1022.1,241.1 1031.3,241.1 1040.6,241.1 1049.8,241.1 1059.1,242.0 1068.3,242.0 1077.6,241.1 1086.8,240.8 1096.1,239.9 1105.3,238.6 1114.5,237.7 1123.8,237.5 1133.0,237.5 1142.3,237.3 1151.5,237.3 1160.8,237.3 1170.0,237.3" fill="none" stroke="#1d4ed8" stroke-width="2" stroke-dasharray="6 5"/>
  <polyline points="70.0,262.4 79.2,265.3 88.5,267.7 97.7,260.7 107.0,267.8 116.2,254.5 125.5,276.4 134.7,270.3 143.9,259.5 153.2,269.1 162.4,268.8 171.7,264.6 180.9,264.5 190.2,267.0 199.4,266.9 208.7,261.2 217.9,264.8 227.1,270.4 236.4,270.9 245.6,263.2 254.9,252.9 264.1,277.0 273.4,271.0 282.6,252.3 291.8,263.9 301.1,270.6 310.3,256.7 319.6,261.2 328.8,263.3 338.1,253.4 347.3,261.5 356.6,254.5 365.8,254.7 375.0,245.3 384.3,245.9 393.5,260.7 402.8,256.2 412.0,263.9 421.3,259.8 430.5,251.2 439.7,253.7 449.0,256.2 458.2,262.7 467.5,254.9 476.7,260.3 486.0,262.0 495.2,245.1 504.5,247.6 513.7,260.9 522.9,251.0 532.2,258.1 541.4,249.3 550.7,239.0 559.9,261.0 569.2,247.1 578.4,239.6 587.6,247.8 596.9,262.8 606.1,254.3 615.4,238.1 624.6,257.1 633.9,254.1 643.1,243.0 652.4,248.5 661.6,247.5 670.8,244.9 680.1,245.4 689.3,253.3 698.6,246.3 707.8,253.9 717.1,243.3 726.3,243.6 735.5,203.1 744.8,191.2 754.0,205.0 763.3,207.7 772.5,188.8 781.8,186.3 791.0,206.6 800.3,200.2 809.5,186.8 818.7,198.4 828.0,187.0 837.2,200.8 846.5,245.9 855.7,245.1 865.0,243.5 874.2,245.4 883.4,242.3 892.7,245.2 901.9,235.1 911.2,243.2 920.4,241.1 929.7,238.6 938.9,242.0 948.2,231.0 957.4,240.8 966.6,237.7 975.9,239.9 985.1,243.5 994.4,237.2 1003.6,235.3 1012.9,235.9 1022.1,234.7 1031.3,237.3 1040.6,237.5 1049.8,233.0 1059.1,233.0 1068.3,226.4 1077.6,242.4 1086.8,240.0 1096.1,237.3 1105.3,231.4 1114.5,237.7 1123.8,243.3 1133.0,236.1 1142.3,238.6 1151.5,232.1 1160.8,231.7 1170.0,235.6" fill="none" stroke="#0f172a" stroke-width="2.5"/>
  <circle cx="735.5" cy="203.1" r="4.5" fill="#ef4444" stroke="#7f1d1d" stroke-width="1"/><circle cx="744.8" cy="191.2" r="4.5" fill="#ef4444" stroke="#7f1d1d" stroke-width="1"/><circle cx="754.0" cy="205.0" r="4.5" fill="#ef4444" stroke="#7f1d1d" stroke-width="1"/><circle cx="763.3" cy="207.7" r="4.5" fill="#ef4444" stroke="#7f1d1d" stroke-width="1"/><circle cx="772.5" cy="188.8" r="4.5" fill="#ef4444" stroke="#7f1d1d" stroke-width="1"/><circle cx="781.8" cy="186.3" r="4.5" fill="#ef4444" stroke="#7f1d1d" stroke-width="1"/><circle cx="791.0" cy="206.6" r="4.5" fill="#ef4444" stroke="#7f1d1d" stroke-width="1"/><circle cx="800.3" cy="200.2" r="4.5" fill="#ef4444" stroke="#7f1d1d" stroke-width="1"/><circle cx="809.5" cy="186.8" r="4.5" fill="#ef4444" stroke="#7f1d1d" stroke-width="1"/><circle cx="818.7" cy="198.4" r="4.5" fill="#ef4444" stroke="#7f1d1d" stroke-width="1"/><circle cx="828.0" cy="187.0" r="4.5" fill="#ef4444" stroke="#7f1d1d" stroke-width="1"/><circle cx="837.2" cy="200.8" r="4.5" fill="#ef4444" stroke="#7f1d1d" stroke-width="1"/>
  <circle cx="735.5" cy="203.1" r="6" fill="none" stroke="#111827" stroke-width="2"/><circle cx="744.8" cy="191.2" r="6" fill="none" stroke="#111827" stroke-width="2"/><circle cx="754.0" cy="205.0" r="6" fill="none" stroke="#111827" stroke-width="2"/><circle cx="763.3" cy="207.7" r="6" fill="none" stroke="#111827" stroke-width="2"/><circle cx="772.5" cy="188.8" r="6" fill="none" stroke="#111827" stroke-width="2"/><circle cx="781.8" cy="186.3" r="6" fill="none" stroke="#111827" stroke-width="2"/><circle cx="791.0" cy="206.6" r="6" fill="none" stroke="#111827" stroke-width="2"/><circle cx="800.3" cy="200.2" r="6" fill="none" stroke="#111827" stroke-width="2"/><circle cx="809.5" cy="186.8" r="6" fill="none" stroke="#111827" stroke-width="2"/><circle cx="818.7" cy="198.4" r="6" fill="none" stroke="#111827" stroke-width="2"/><circle cx="828.0" cy="187.0" r="6" fill="none" stroke="#111827" stroke-width="2"/><circle cx="837.2" cy="200.8" r="6" fill="none" stroke="#111827" stroke-width="2"/>
  <text x="40" y="448" font-family="Segoe UI, Arial, sans-serif" font-size="16" font-weight="700" fill="#0f172a">Raw score vs threshold</text>
  <rect x="70" y="430" width="1100" height="220" fill="#ffffff" stroke="#dbe4f0"/>
  <line x1="70" y1="650" x2="1170" y2="650" stroke="#94a3b8"/>
  <line x1="70" y1="430" x2="70" y2="650" stroke="#94a3b8"/>
  <line x1="70" y1="584.1" x2="1170" y2="584.1" stroke="#ef4444" stroke-width="2" stroke-dasharray="7 5"/>
  <polyline points="70.0,631.7 79.2,631.7 88.5,631.7 97.7,631.7 107.0,631.7 116.2,631.7 125.5,631.7 134.7,631.7 143.9,631.7 153.2,631.7 162.4,613.9 171.7,600.7 180.9,624.2 190.2,619.2 199.4,627.5 208.7,620.2 217.9,630.4 227.1,622.9 236.4,624.5 245.6,623.7 254.9,600.4 264.1,603.2 273.4,620.9 282.6,594.4 291.8,623.2 301.1,621.5 310.3,604.2 319.6,615.3 328.8,623.0 338.1,603.6 347.3,614.7 356.6,605.6 365.8,609.6 375.0,584.7 384.3,592.0 393.5,601.3 402.8,598.7 412.0,617.8 421.3,619.1 430.5,616.6 439.7,619.9 449.0,624.6 458.2,627.3 467.5,623.1 476.7,626.1 486.0,626.9 495.2,604.1 504.5,613.6 513.7,623.2 522.9,620.9 532.2,627.9 541.4,617.6 550.7,593.2 559.9,614.1 569.2,613.1 578.4,605.8 587.6,612.6 596.9,613.8 606.1,610.1 615.4,596.5 624.6,619.7 633.9,619.5 643.1,612.4 652.4,624.5 661.6,623.1 670.8,618.9 680.1,618.9 689.3,627.1 698.6,625.5 707.8,624.5 717.1,623.0 726.3,623.5 735.5,564.7 744.8,539.9 754.0,570.5 763.3,565.3 772.5,539.1 781.8,516.6 791.0,478.5 800.3,456.3 809.5,525.8 818.7,566.1 828.0,566.3 837.2,571.9 846.5,590.1 855.7,599.3 865.0,603.6 874.2,619.9 883.4,610.1 892.7,604.1 901.9,597.8 911.2,591.4 920.4,591.1 929.7,591.5 938.9,590.2 948.2,591.3 957.4,591.7 966.6,601.4 975.9,604.7 985.1,611.7 994.4,629.4 1003.6,630.1 1012.9,629.1 1022.1,628.4 1031.3,629.1 1040.6,628.6 1049.8,625.2 1059.1,620.4 1068.3,586.7 1077.6,603.9 1086.8,610.9 1096.1,623.3 1105.3,611.8 1114.5,618.7 1123.8,609.9 1133.0,627.0 1142.3,627.3 1151.5,615.6 1160.8,614.4 1170.0,625.8" fill="none" stroke="#7c3aed" stroke-width="2.5"/>
  <text x="82" y="576.1" font-family="Segoe UI, Arial, sans-serif" font-size="13" fill="#b91c1c">threshold=3.00</text>
  <g transform="translate(40, 690)">
    <circle cx="0" cy="0" r="5" fill="#ef4444" stroke="#7f1d1d" stroke-width="1"/>
    <text x="14" y="5" font-family="Segoe UI, Arial, sans-serif" font-size="14" fill="#334155">Detector anomaly</text>
    <circle cx="180" cy="0" r="6" fill="none" stroke="#111827" stroke-width="2"/>
    <text x="196" y="5" font-family="Segoe UI, Arial, sans-serif" font-size="14" fill="#334155">Labeled anomaly</text>
  </g>
</svg>
