<svg xmlns="http://www.w3.org/2000/svg" width="1200" height="760" viewBox="0 0 1200 760">
  <rect width="1200" height="760" fill="#fffdf8" rx="24"/>
  <text x="40" y="42" font-family="Segoe UI, Arial, sans-serif" font-size="28" font-weight="700" fill="#0f172a">Elastic result view</text>
  <text x="40" y="68" font-family="Segoe UI, Arial, sans-serif" font-size="15" fill="#475569">subtle_level_shift imported from Elastic records export | threshold=1.0</text>
  <text x="40" y="108" font-family="Segoe UI, Arial, sans-serif" font-size="16" font-weight="700" fill="#0f172a">Signal with Elastic anomaly markers</text>
  <rect x="70" y="90" width="1100" height="270" fill="#ffffff" stroke="#dbe4f0"/>
  <line x1="70" y1="360" x2="1170" y2="360" stroke="#94a3b8"/>
  <line x1="70" y1="90" x2="70" y2="360" stroke="#94a3b8"/>
  <polyline points="70.0,301.1 79.2,308.3 88.5,314.3 97.7,297.0 107.0,314.5 116.2,281.5 125.5,335.8 134.7,320.7 143.9,294.1 153.2,317.8 162.4,317.0 171.7,306.6 180.9,306.3 190.2,312.6 199.4,312.3 208.7,298.2 217.9,307.0 227.1,321.1 236.4,322.4 245.6,303.1 254.9,277.7 264.1,337.5 273.4,322.4 282.6,276.1 291.8,304.9 301.1,321.6 310.3,286.9 319.6,298.2 328.8,303.5 338.1,278.9 347.3,299.0 356.6,281.6 365.8,282.1 375.0,258.9 384.3,260.2 393.5,296.9 402.8,285.9 412.0,304.9 421.3,294.7 430.5,273.3 439.7,279.5 449.0,285.8 458.2,301.9 467.5,282.5 476.7,295.8 486.0,300.2 495.2,258.4 504.5,264.5 513.7,297.5 522.9,272.8 532.2,290.4 541.4,268.6 550.7,243.0 559.9,297.6 569.2,263.1 578.4,244.5 587.6,264.9 596.9,302.1 606.1,281.2 615.4,240.9 624.6,288.0 633.9,280.7 643.1,253.0 652.4,266.6 661.6,264.1 670.8,257.8 680.1,259.0 689.3,278.5 698.6,261.2 707.8,280.1 717.1,253.8 726.3,254.6 735.5,154.2 744.8,124.7 754.0,158.9 763.3,165.6 772.5,118.6 781.8,112.5 791.0,162.7 800.3,146.9 809.5,113.7 818.7,142.5 828.0,114.1 837.2,148.3 846.5,260.3 855.7,258.3 865.0,254.4 874.2,259.0 883.4,251.4 892.7,258.6 901.9,233.6 911.2,253.6 920.4,248.3 929.7,242.1 938.9,250.5 948.2,223.3 957.4,247.7 966.6,239.9 975.9,245.3 985.1,254.2 994.4,238.7 1003.6,233.9 1012.9,235.4 1022.1,232.6 1031.3,238.8 1040.6,239.3 1049.8,228.3 1059.1,228.2 1068.3,212.0 1077.6,251.5 1086.8,245.7 1096.1,239.0 1105.3,224.2 1114.5,239.9 1123.8,253.8 1133.0,235.9 1142.3,242.2 1151.5,226.1 1160.8,225.0 1170.0,234.8" fill="none" stroke="#334155" stroke-width="2.5"/>
  <line x1="726.3" y1="342.5" x2="726.3" y2="228.8" stroke="#86efac" stroke-width="3" stroke-linecap="round"/><line x1="735.5" y1="348.8" x2="735.5" y2="219.9" stroke="#86efac" stroke-width="3" stroke-linecap="round"/><line x1="744.8" y1="354.2" x2="744.8" y2="211.0" stroke="#86efac" stroke-width="3" stroke-linecap="round"/><line x1="754.0" y1="358.8" x2="754.0" y2="202.9" stroke="#86efac" stroke-width="3" stroke-linecap="round"/><line x1="763.3" y1="365.5" x2="763.3" y2="192.2" stroke="#86efac" stroke-width="3" stroke-linecap="round"/><line x1="772.5" y1="372.4" x2="772.5" y2="180.8" stroke="#86efac" stroke-width="3" stroke-linecap="round"/><line x1="781.8" y1="374.9" x2="781.8" y2="174.9" stroke="#86efac" stroke-width="3" stroke-linecap="round"/><line x1="791.0" y1="378.1" x2="791.0" y2="167.9" stroke="#86efac" stroke-width="3" stroke-linecap="round"/><line x1="800.3" y1="383.4" x2="800.3" y2="158.0" stroke="#86efac" stroke-width="3" stroke-linecap="round"/><line x1="809.5" y1="385.8" x2="809.5" y2="151.9" stroke="#86efac" stroke-width="3" stroke-linecap="round"/><line x1="818.7" y1="389.7" x2="818.7" y2="143.5" stroke="#86efac" stroke-width="3" stroke-linecap="round"/><line x1="828.0" y1="391.1" x2="828.0" y2="138.9" stroke="#86efac" stroke-width="3" stroke-linecap="round"/>
  <rect x="723.3" y="283.1" width="6" height="6" fill="#2563eb"/><rect x="732.5" y="281.9" width="6" height="6" fill="#2563eb"/><rect x="741.8" y="280.4" width="6" height="6" fill="#2563eb"/><rect x="751.0" y="278.7" width="6" height="6" fill="#2563eb"/><rect x="760.3" y="277.0" width="6" height="6" fill="#2563eb"/><rect x="769.5" y="275.0" width="6" height="6" fill="#2563eb"/><rect x="778.8" y="273.5" width="6" height="6" fill="#2563eb"/><rect x="788.0" y="271.8" width="6" height="6" fill="#2563eb"/><rect x="797.3" y="269.7" width="6" height="6" fill="#2563eb"/><rect x="806.5" y="268.0" width="6" height="6" fill="#2563eb"/><rect x="815.7" y="266.0" width="6" height="6" fill="#2563eb"/><rect x="825.0" y="264.5" width="6" height="6" fill="#2563eb"/>
  <circle cx="726.3" cy="254.6" r="5.5" fill="#16a34a" stroke="#14532d" stroke-width="1"/><circle cx="735.5" cy="154.2" r="5.5" fill="#16a34a" stroke="#14532d" stroke-width="1"/><circle cx="744.8" cy="124.7" r="5.5" fill="#16a34a" stroke="#14532d" stroke-width="1"/><circle cx="754.0" cy="158.9" r="5.5" fill="#16a34a" stroke="#14532d" stroke-width="1"/><circle cx="763.3" cy="165.6" r="5.5" fill="#16a34a" stroke="#14532d" stroke-width="1"/><circle cx="772.5" cy="118.6" r="5.5" fill="#16a34a" stroke="#14532d" stroke-width="1"/><circle cx="781.8" cy="112.5" r="5.5" fill="#16a34a" stroke="#14532d" stroke-width="1"/><circle cx="791.0" cy="162.7" r="5.5" fill="#16a34a" stroke="#14532d" stroke-width="1"/><circle cx="800.3" cy="146.9" r="5.5" fill="#16a34a" stroke="#14532d" stroke-width="1"/><circle cx="809.5" cy="113.7" r="5.5" fill="#16a34a" stroke="#14532d" stroke-width="1"/><circle cx="818.7" cy="142.5" r="5.5" fill="#16a34a" stroke="#14532d" stroke-width="1"/><circle cx="828.0" cy="114.1" r="5.5" fill="#f59e0b" stroke="#14532d" stroke-width="1"/>
  <text x="40" y="448" font-family="Segoe UI, Arial, sans-serif" font-size="16" font-weight="700" fill="#0f172a">Elastic record_score</text>
  <rect x="70" y="430" width="1100" height="220" fill="#ffffff" stroke="#dbe4f0"/>
  <line x1="70" y1="650" x2="1170" y2="650" stroke="#94a3b8"/>
  <line x1="70" y1="430" x2="70" y2="650" stroke="#94a3b8"/>
  <line x1="70" y1="628.0" x2="1170" y2="628.0" stroke="#f59e0b" stroke-width="2" stroke-dasharray="7 5"/>
  <polyline points="726.3,556.7 735.5,448.3 744.8,621.7 754.0,625.1 763.3,621.7 772.5,621.7 781.8,625.6 791.0,625.5 800.3,625.5 809.5,627.3 818.7,626.2 828.0,630.0" fill="none" stroke="#16a34a" stroke-width="2.5"/>
  <circle cx="726.3" cy="556.7" r="4.5" fill="#16a34a"/><circle cx="735.5" cy="448.3" r="4.5" fill="#16a34a"/><circle cx="744.8" cy="621.7" r="4.5" fill="#16a34a"/><circle cx="754.0" cy="625.1" r="4.5" fill="#16a34a"/><circle cx="763.3" cy="621.7" r="4.5" fill="#16a34a"/><circle cx="772.5" cy="621.7" r="4.5" fill="#16a34a"/><circle cx="781.8" cy="625.6" r="4.5" fill="#16a34a"/><circle cx="791.0" cy="625.5" r="4.5" fill="#16a34a"/><circle cx="800.3" cy="625.5" r="4.5" fill="#16a34a"/><circle cx="809.5" cy="627.3" r="4.5" fill="#16a34a"/><circle cx="818.7" cy="626.2" r="4.5" fill="#16a34a"/><circle cx="828.0" cy="630.0" r="4.5" fill="#16a34a"/>
  <g transform="translate(40, 690)">
    <circle cx="0" cy="0" r="5" fill="#16a34a" stroke="#14532d" stroke-width="1"/>
    <text x="14" y="5" font-family="Segoe UI, Arial, sans-serif" font-size="14" fill="#334155">Elastic anomaly (score >= threshold)</text>
    <circle cx="290" cy="0" r="5" fill="#f59e0b" stroke="#92400e" stroke-width="1"/>
    <text x="304" y="5" font-family="Segoe UI, Arial, sans-serif" font-size="14" fill="#334155">Elastic record below threshold</text>
    <rect x="570" y="-4" width="8" height="8" fill="#2563eb"/>
    <text x="586" y="5" font-family="Segoe UI, Arial, sans-serif" font-size="14" fill="#334155">Elastic typical</text>
  </g>
</svg>
