<svg xmlns="http://www.w3.org/2000/svg" width="1200" height="760" viewBox="0 0 1200 760">
  <rect width="1200" height="760" fill="#fbfcfe" rx="24"/>
  <text x="40" y="42" font-family="Segoe UI, Arial, sans-serif" font-size="28" font-weight="700" fill="#0f172a">traffic_drop_ewma - Current detector</text>
  <text x="40" y="68" font-family="Segoe UI, Arial, sans-serif" font-size="15" fill="#475569">default config | precision=1.0 | F1=1.0</text>
  <text x="40" y="108" font-family="Segoe UI, Arial, sans-serif" font-size="16" font-weight="700" fill="#0f172a">Signal and expected band</text>
  <rect x="70" y="90" width="1100" height="270" fill="#ffffff" stroke="#dbe4f0"/>
  <line x1="70" y1="360" x2="1170" y2="360" stroke="#94a3b8"/>
  <line x1="70" y1="90" x2="70" y2="360" stroke="#94a3b8"/>
  <polygon points="81.6,226.1 93.2,230.6 104.7,221.6 116.3,230.0 127.9,230.7 139.5,231.6 151.1,230.2 162.6,229.1 174.2,228.3 185.8,228.7 197.4,228.4 208.9,227.4 220.5,227.3 232.1,226.7 243.7,225.8 255.3,225.4 266.8,221.3 278.4,217.0 290.0,216.2 301.6,215.4 313.2,215.7 324.7,215.9 336.3,219.5 347.9,215.1 359.5,214.0 371.1,214.1 382.6,213.3 394.2,212.6 405.8,211.3 417.4,210.4 428.9,209.5 440.5,208.2 452.1,207.5 463.7,207.4 475.3,205.6 486.8,203.6 498.4,204.3 510.0,202.7 521.6,200.4 533.2,200.1 544.7,199.8 556.3,199.3 567.9,198.9 579.5,198.2 591.1,197.4 602.6,196.8 614.2,196.5 625.8,198.0 637.4,196.4 648.9,196.1 660.5,194.7 672.1,193.7 683.7,197.0 695.3,201.4 706.8,205.2 718.4,207.3 730.0,209.9 741.6,211.8 753.2,214.6 764.7,212.4 776.3,209.4 787.9,207.4 799.5,205.5 811.1,202.0 822.6,197.3 834.2,187.1 845.8,155.8 857.4,134.7 868.9,130.3 880.5,129.0 892.1,127.9 903.7,126.7 915.3,125.7 926.8,119.3 938.4,118.3 950.0,117.4 961.6,116.7 973.2,115.7 984.7,114.6 996.3,113.7 1007.9,113.1 1019.5,112.5 1031.1,116.7 1042.6,119.7 1054.2,123.6 1065.8,129.5 1077.4,132.6 1088.9,137.8 1100.5,142.2 1112.1,142.0 1123.7,143.1 1135.3,143.6 1146.8,144.9 1158.4,146.6 1170.0,147.4 1170.0,276.0 1158.4,278.4 1146.8,281.6 1135.3,284.1 1123.7,286.5 1112.1,288.3 1100.5,289.4 1088.9,295.2 1077.4,300.9 1065.8,306.4 1054.2,313.8 1042.6,319.0 1031.1,323.8 1019.5,329.2 1007.9,329.8 996.3,330.4 984.7,331.3 973.2,332.4 961.6,333.4 950.0,334.1 938.4,335.0 926.8,336.0 915.3,332.9 903.7,333.9 892.1,335.1 880.5,336.2 868.9,337.5 857.4,336.1 845.8,317.7 834.2,289.7 822.6,282.9 811.1,281.1 799.5,281.5 787.9,283.4 776.3,285.3 764.7,285.7 753.2,288.0 741.6,285.1 730.0,279.8 718.4,273.4 706.8,268.4 695.3,264.6 683.7,260.2 672.1,254.4 660.5,254.3 648.9,253.9 637.4,254.4 625.8,253.7 614.2,255.2 602.6,255.5 591.1,255.7 579.5,256.5 567.9,256.7 556.3,257.1 544.7,257.7 533.2,257.9 521.6,258.3 510.0,257.3 498.4,256.8 486.8,258.2 475.3,257.3 463.7,256.6 452.1,256.7 440.5,257.4 428.9,257.2 417.4,257.0 405.8,257.4 394.2,258.3 382.6,258.3 371.1,258.3 359.5,259.0 347.9,259.3 336.3,256.4 324.7,260.1 313.2,260.6 301.6,261.1 290.0,261.2 278.4,261.2 266.8,258.2 255.3,254.9 243.7,255.1 232.1,255.8 220.5,256.0 208.9,256.4 197.4,256.3 185.8,255.6 174.2,256.3 162.6,255.9 151.1,255.4 139.5,255.1 127.9,255.9 116.3,256.8 104.7,265.5 93.2,257.4 81.6,262.2" fill="#dbeafe" fill-opacity="0.65" stroke="none"/>
  <polyline points="81.6,244.2 93.2,244.0 104.7,243.5 116.3,243.4 127.9,243.3 139.5,243.4 151.1,242.8 162.6,242.5 174.2,242.3 185.8,242.1 197.4,242.4 208.9,241.9 220.5,241.7 232.1,241.3 243.7,240.4 255.3,240.1 266.8,239.7 278.4,239.1 290.0,238.7 301.6,238.3 313.2,238.2 324.7,238.0 336.3,237.9 347.9,237.2 359.5,236.5 371.1,236.2 382.6,235.8 394.2,235.4 405.8,234.3 417.4,233.7 428.9,233.3 440.5,232.8 452.1,232.1 463.7,232.0 475.3,231.4 486.8,230.9 498.4,230.6 510.0,230.0 521.6,229.3 533.2,229.0 544.7,228.8 556.3,228.2 567.9,227.8 579.5,227.4 591.1,226.5 602.6,226.1 614.2,225.8 625.8,225.9 637.4,225.4 648.9,225.0 660.5,224.5 672.1,224.1 683.7,228.6 695.3,233.0 706.8,236.8 718.4,240.3 730.0,244.9 741.6,248.4 753.2,251.3 764.7,249.0 776.3,247.3 787.9,245.4 799.5,243.5 811.1,241.6 822.6,240.1 834.2,238.4 845.8,236.8 857.4,235.4 868.9,233.9 880.5,232.6 892.1,231.5 903.7,230.3 915.3,229.3 926.8,227.7 938.4,226.6 950.0,225.7 961.6,225.0 973.2,224.0 984.7,223.0 996.3,222.0 1007.9,221.5 1019.5,220.9 1031.1,220.3 1042.6,219.4 1054.2,218.7 1065.8,218.0 1077.4,216.7 1088.9,216.5 1100.5,215.8 1112.1,215.1 1123.7,214.8 1135.3,213.8 1146.8,213.2 1158.4,212.5 1170.0,211.7" fill="none" stroke="#1d4ed8" stroke-width="2" stroke-dasharray="6 5"/>
  <polyline points="70.0,244.2 81.6,241.2 93.2,237.2 104.7,240.9 116.3,242.4 127.9,243.9 139.5,234.9 151.1,237.9 162.6,239.3 174.2,240.1 185.8,245.4 197.4,235.2 208.9,238.7 220.5,235.0 232.1,228.7 243.7,235.4 255.3,234.1 266.8,229.6 278.4,233.6 290.0,231.9 301.6,236.4 313.2,235.1 324.7,237.4 336.3,227.0 347.9,225.6 359.5,231.8 371.1,230.0 382.6,230.6 394.2,218.3 405.8,224.4 417.4,228.3 428.9,224.7 440.5,221.8 452.1,230.4 463.7,223.7 475.3,223.4 486.8,225.2 498.4,221.9 510.0,219.9 521.6,224.0 533.2,225.1 544.7,219.8 556.3,222.3 567.9,221.0 579.5,214.6 591.1,220.3 602.6,221.6 614.2,226.1 625.8,219.2 637.4,218.8 648.9,217.5 660.5,217.3 672.1,294.6 683.7,296.1 695.3,292.8 706.8,290.9 718.4,310.9 730.0,300.1 741.6,293.2 753.2,215.9 764.7,222.7 776.3,217.4 787.9,215.9 799.5,213.6 811.1,218.3 822.6,213.8 834.2,213.5 845.8,215.3 857.4,212.6 868.9,213.1 880.5,216.3 892.1,213.0 903.7,214.7 915.3,203.7 926.8,211.4 938.4,212.5 950.0,215.3 961.6,209.4 973.2,207.6 984.7,208.5 996.3,213.4 1007.9,211.8 1019.5,211.6 1031.1,206.3 1042.6,209.9 1054.2,206.6 1065.8,199.1 1077.4,212.6 1088.9,206.1 1100.5,204.9 1112.1,210.1 1123.7,200.0 1135.3,204.6 1146.8,201.8 1158.4,200.6 1170.0,197.1" fill="none" stroke="#0f172a" stroke-width="2.5"/>
  <circle cx="672.1" cy="294.6" r="4.5" fill="#ef4444" stroke="#7f1d1d" stroke-width="1"/><circle cx="683.7" cy="296.1" r="4.5" fill="#ef4444" stroke="#7f1d1d" stroke-width="1"/><circle cx="695.3" cy="292.8" r="4.5" fill="#ef4444" stroke="#7f1d1d" stroke-width="1"/><circle cx="706.8" cy="290.9" r="4.5" fill="#ef4444" stroke="#7f1d1d" stroke-width="1"/><circle cx="718.4" cy="310.9" r="4.5" fill="#ef4444" stroke="#7f1d1d" stroke-width="1"/><circle cx="730.0" cy="300.1" r="4.5" fill="#ef4444" stroke="#7f1d1d" stroke-width="1"/><circle cx="741.6" cy="293.2" r="4.5" fill="#ef4444" stroke="#7f1d1d" stroke-width="1"/>
  <circle cx="672.1" cy="294.6" r="6" fill="none" stroke="#111827" stroke-width="2"/><circle cx="683.7" cy="296.1" r="6" fill="none" stroke="#111827" stroke-width="2"/><circle cx="695.3" cy="292.8" r="6" fill="none" stroke="#111827" stroke-width="2"/><circle cx="706.8" cy="290.9" r="6" fill="none" stroke="#111827" stroke-width="2"/><circle cx="718.4" cy="310.9" r="6" fill="none" stroke="#111827" stroke-width="2"/><circle cx="730.0" cy="300.1" r="6" fill="none" stroke="#111827" stroke-width="2"/><circle cx="741.6" cy="293.2" r="6" fill="none" stroke="#111827" stroke-width="2"/>
  <text x="40" y="448" font-family="Segoe UI, Arial, sans-serif" font-size="16" font-weight="700" fill="#0f172a">Raw score vs threshold</text>
  <rect x="70" y="430" width="1100" height="220" fill="#ffffff" stroke="#dbe4f0"/>
  <line x1="70" y1="650" x2="1170" y2="650" stroke="#94a3b8"/>
  <line x1="70" y1="430" x2="70" y2="650" stroke="#94a3b8"/>
  <line x1="70" y1="556.4" x2="1170" y2="556.4" stroke="#ef4444" stroke-width="2" stroke-dasharray="7 5"/>
  <polyline points="70.0,631.7 81.6,619.2 93.2,593.7 104.7,622.5 116.3,619.3 127.9,621.7 139.5,577.4 151.1,602.3 162.6,613.5 174.2,620.1 185.8,613.3 197.4,593.3 208.9,615.4 220.5,596.5 232.1,566.8 243.7,605.6 255.3,601.1 266.8,590.1 278.4,612.9 290.0,608.8 301.6,617.1 313.2,617.2 324.7,617.2 336.3,587.2 347.9,592.0 359.5,615.9 371.1,610.8 382.6,614.3 394.2,575.3 405.8,599.1 417.4,614.1 428.9,604.4 440.5,598.1 452.1,614.9 463.7,606.4 475.3,608.2 486.8,615.6 498.4,606.9 510.0,603.8 521.6,617.8 533.2,618.7 544.7,608.4 556.3,616.5 567.9,613.9 579.5,598.8 591.1,615.6 602.6,618.7 614.2,620.5 625.8,613.7 637.4,614.6 648.9,612.2 660.5,613.5 672.1,456.7 683.7,470.8 695.3,489.1 706.8,502.9 718.4,471.0 730.0,512.7 741.6,539.7 753.2,559.0 764.7,577.6 776.3,572.3 787.9,573.2 799.5,572.4 811.1,587.4 822.6,585.4 834.2,595.1 845.8,611.7 857.4,614.6 868.9,616.6 880.5,618.9 892.1,618.2 903.7,620.1 915.3,613.1 926.8,620.4 938.4,621.9 950.0,622.7 961.6,620.8 973.2,620.2 984.7,621.6 996.3,624.0 1007.9,624.3 1019.5,624.5 1031.1,621.6 1042.6,624.5 1054.2,622.1 1065.8,615.6 1077.4,624.5 1088.9,621.8 1100.5,620.5 1112.1,624.3 1123.7,616.2 1135.3,621.8 1146.8,619.1 1158.4,618.1 1170.0,614.5" fill="none" stroke="#7c3aed" stroke-width="2.5"/>
  <text x="82" y="548.4" font-family="Segoe UI, Arial, sans-serif" font-size="13" fill="#b91c1c">threshold=4.50</text>
  <g transform="translate(40, 690)">
    <circle cx="0" cy="0" r="5" fill="#ef4444" stroke="#7f1d1d" stroke-width="1"/>
    <text x="14" y="5" font-family="Segoe UI, Arial, sans-serif" font-size="14" fill="#334155">Detector anomaly</text>
    <circle cx="180" cy="0" r="6" fill="none" stroke="#111827" stroke-width="2"/>
    <text x="196" y="5" font-family="Segoe UI, Arial, sans-serif" font-size="14" fill="#334155">Labeled anomaly</text>
  </g>
</svg>
