<svg xmlns="http://www.w3.org/2000/svg" width="1200" height="760" viewBox="0 0 1200 760">
  <rect width="1200" height="760" fill="#fffdf8" rx="24"/>
  <text x="40" y="42" font-family="Segoe UI, Arial, sans-serif" font-size="28" font-weight="700" fill="#0f172a">Elastic result view</text>
  <text x="40" y="68" font-family="Segoe UI, Arial, sans-serif" font-size="15" fill="#475569">traffic_drop_ewma imported from Elastic records export | threshold=1.0</text>
  <text x="40" y="108" font-family="Segoe UI, Arial, sans-serif" font-size="16" font-weight="700" fill="#0f172a">Signal with Elastic anomaly markers</text>
  <rect x="70" y="90" width="1100" height="270" fill="#ffffff" stroke="#dbe4f0"/>
  <line x1="70" y1="360" x2="1170" y2="360" stroke="#94a3b8"/>
  <line x1="70" y1="90" x2="70" y2="360" stroke="#94a3b8"/>
  <polyline points="70.0,205.6 81.6,199.7 93.2,191.8 104.7,199.2 116.3,202.1 127.9,205.1 139.5,187.2 151.1,193.2 162.6,195.9 174.2,197.6 185.8,208.1 197.4,187.9 208.9,194.9 220.5,187.4 232.1,175.1 243.7,188.2 255.3,185.8 266.8,176.7 278.4,184.7 290.0,181.3 301.6,190.3 313.2,187.7 324.7,192.3 336.3,171.8 347.9,168.9 359.5,181.1 371.1,177.7 382.6,178.8 394.2,154.6 405.8,166.4 417.4,174.2 428.9,167.1 440.5,161.4 452.1,178.4 463.7,165.2 475.3,164.5 486.8,168.2 498.4,161.6 510.0,157.7 521.6,165.8 533.2,168.0 544.7,157.5 556.3,162.4 567.9,159.7 579.5,147.2 591.1,158.4 602.6,161.0 614.2,169.8 625.8,156.2 637.4,155.5 648.9,152.9 660.5,152.5 672.1,305.3 683.7,308.3 695.3,301.8 706.8,297.9 718.4,337.5 730.0,316.1 741.6,302.6 753.2,149.8 764.7,163.1 776.3,152.7 787.9,149.7 799.5,145.2 811.1,154.5 822.6,145.5 834.2,144.9 845.8,148.5 857.4,143.2 868.9,144.3 880.5,150.5 892.1,144.0 903.7,147.4 915.3,125.6 926.8,140.9 938.4,143.1 950.0,148.5 961.6,136.9 973.2,133.3 984.7,135.0 996.3,144.8 1007.9,141.5 1019.5,141.2 1031.1,130.8 1042.6,137.8 1054.2,131.4 1065.8,116.5 1077.4,143.2 1088.9,130.4 1100.5,127.9 1112.1,138.3 1123.7,118.3 1135.3,127.4 1146.8,121.8 1158.4,119.5 1170.0,112.5" fill="none" stroke="#334155" stroke-width="2.5"/>
  <line x1="660.5" y1="222.8" x2="660.5" y2="125.4" stroke="#86efac" stroke-width="3" stroke-linecap="round"/><line x1="672.1" y1="234.5" x2="672.1" y2="114.9" stroke="#86efac" stroke-width="3" stroke-linecap="round"/><line x1="683.7" y1="247.0" x2="683.7" y2="104.0" stroke="#86efac" stroke-width="3" stroke-linecap="round"/><line x1="695.3" y1="259.5" x2="695.3" y2="93.3" stroke="#86efac" stroke-width="3" stroke-linecap="round"/><line x1="706.8" y1="274.3" x2="706.8" y2="79.3" stroke="#86efac" stroke-width="3" stroke-linecap="round"/><line x1="718.4" y1="286.5" x2="718.4" y2="68.6" stroke="#86efac" stroke-width="3" stroke-linecap="round"/><line x1="730.0" y1="294.6" x2="730.0" y2="62.3" stroke="#86efac" stroke-width="3" stroke-linecap="round"/>
  <rect x="657.5" y="172.9" width="6" height="6" fill="#2563eb"/><rect x="669.1" y="174.6" width="6" height="6" fill="#2563eb"/><rect x="680.7" y="176.8" width="6" height="6" fill="#2563eb"/><rect x="692.3" y="179.5" width="6" height="6" fill="#2563eb"/><rect x="703.8" y="182.4" width="6" height="6" fill="#2563eb"/><rect x="715.4" y="185.7" width="6" height="6" fill="#2563eb"/><rect x="727.0" y="188.4" width="6" height="6" fill="#2563eb"/>
  <circle cx="660.5" cy="152.5" r="5.5" fill="#16a34a" stroke="#14532d" stroke-width="1"/><circle cx="672.1" cy="305.3" r="5.5" fill="#16a34a" stroke="#14532d" stroke-width="1"/><circle cx="683.7" cy="308.3" r="5.5" fill="#16a34a" stroke="#14532d" stroke-width="1"/><circle cx="695.3" cy="301.8" r="5.5" fill="#f59e0b" stroke="#14532d" stroke-width="1"/><circle cx="706.8" cy="297.9" r="5.5" fill="#16a34a" stroke="#14532d" stroke-width="1"/><circle cx="718.4" cy="337.5" r="5.5" fill="#16a34a" stroke="#14532d" stroke-width="1"/><circle cx="730.0" cy="316.1" r="5.5" fill="#16a34a" stroke="#14532d" stroke-width="1"/>
  <text x="40" y="448" font-family="Segoe UI, Arial, sans-serif" font-size="16" font-weight="700" fill="#0f172a">Elastic record_score</text>
  <rect x="70" y="430" width="1100" height="220" fill="#ffffff" stroke="#dbe4f0"/>
  <line x1="70" y1="650" x2="1170" y2="650" stroke="#94a3b8"/>
  <line x1="70" y1="430" x2="70" y2="650" stroke="#94a3b8"/>
  <line x1="70" y1="627.9" x2="1170" y2="627.9" stroke="#f59e0b" stroke-width="2" stroke-dasharray="7 5"/>
  <polyline points="660.5,448.3 672.1,567.9 683.7,623.0 695.3,628.5 706.8,604.4 718.4,623.1 730.0,627.7" fill="none" stroke="#16a34a" stroke-width="2.5"/>
  <circle cx="660.5" cy="448.3" r="4.5" fill="#16a34a"/><circle cx="672.1" cy="567.9" r="4.5" fill="#16a34a"/><circle cx="683.7" cy="623.0" r="4.5" fill="#16a34a"/><circle cx="695.3" cy="628.5" r="4.5" fill="#16a34a"/><circle cx="706.8" cy="604.4" r="4.5" fill="#16a34a"/><circle cx="718.4" cy="623.1" r="4.5" fill="#16a34a"/><circle cx="730.0" cy="627.7" r="4.5" fill="#16a34a"/>
  <g transform="translate(40, 690)">
    <circle cx="0" cy="0" r="5" fill="#16a34a" stroke="#14532d" stroke-width="1"/>
    <text x="14" y="5" font-family="Segoe UI, Arial, sans-serif" font-size="14" fill="#334155">Elastic anomaly (score >= threshold)</text>
    <circle cx="290" cy="0" r="5" fill="#f59e0b" stroke="#92400e" stroke-width="1"/>
    <text x="304" y="5" font-family="Segoe UI, Arial, sans-serif" font-size="14" fill="#334155">Elastic record below threshold</text>
    <rect x="570" y="-4" width="8" height="8" fill="#2563eb"/>
    <text x="586" y="5" font-family="Segoe UI, Arial, sans-serif" font-size="14" fill="#334155">Elastic typical</text>
  </g>
</svg>
